<?xml version="1.0" encoding="utf-8" standalone="no"?>
<!DOCTYPE svg PUBLIC "-//W3C//DTD SVG 1.1//EN"
  "http://www.w3.org/Graphics/SVG/1.1/DTD/svg11.dtd">
<svg xmlns:xlink="http://www.w3.org/1999/xlink" width="416.70875pt" height="236.098606pt" viewBox="0 0 416.70875 236.098606" xmlns="http://www.w3.org/2000/svg" version="1.1">
 <metadata>
  <rdf:RDF xmlns:dc="http://purl.org/dc/elements/1.1/" xmlns:cc="http://creativecommons.org/ns#" xmlns:rdf="http://www.w3.org/1999/02/22-rdf-syntax-ns#">
   <cc:Work>
    <dc:type rdf:resource="http://purl.org/dc/dcmitype/StillImage"/>
    <dc:date>2024-12-03T13:18:25.346827</dc:date>
    <dc:format>image/svg+xml</dc:format>
    <dc:creator>
     <cc:Agent>
      <dc:title>Matplotlib v3.7.0, https://matplotlib.org/</dc:title>
     </cc:Agent>
    </dc:creator>
   </cc:Work>
  </rdf:RDF>
 </metadata>
 <defs>
  <style type="text/css">*{stroke-linejoin: round; stroke-linecap: butt}</style>
 </defs>
 <g id="figure_1">
  <g id="patch_1">
   <path d="M 0 236.098606 
L 416.70875 236.098606 
L 416.70875 -0 
L 0 -0 
z
" style="fill: #ffffff"/>
  </g>
  <g id="axes_1">
   <g id="patch_2">
    <path d="M 41.22875 202.413606 
L 201.350489 202.413606 
L 201.350489 8.373606 
L 41.22875 8.373606 
z
" style="fill: #ffffff"/>
   </g>
   <g id="matplotlib.axis_1">
    <g id="xtick_1">
     <g id="line2d_1">
      <defs>
       <path id="me0c9d91243" d="M 0 0 
L 0 3.5 
" style="stroke: #000000; stroke-width: 0.8"/>
      </defs>
      <g>
       <use xlink:href="#me0c9d91243" x="48.507011" y="202.413606" style="stroke: #000000; stroke-width: 0.8"/>
      </g>
     </g>
     <g id="text_1">
      <!-- 0 -->
      <g transform="translate(45.962011 215.492356) scale(0.08 -0.08)">
       <defs>
        <path id="DejaVuSans-30" d="M 2034 4250 
Q 1547 4250 1301 3770 
Q 1056 3291 1056 2328 
Q 1056 1369 1301 889 
Q 1547 409 2034 409 
Q 2525 409 2770 889 
Q 3016 1369 3016 2328 
Q 3016 3291 2770 3770 
Q 2525 4250 2034 4250 
z
M 2034 4750 
Q 2819 4750 3233 4129 
Q 3647 3509 3647 2328 
Q 3647 1150 3233 529 
Q 2819 -91 2034 -91 
Q 1250 -91 836 529 
Q 422 1150 422 2328 
Q 422 3509 836 4129 
Q 1250 4750 2034 4750 
z
" transform="scale(0.015625)"/>
       </defs>
       <use xlink:href="#DejaVuSans-30"/>
      </g>
     </g>
    </g>
    <g id="xtick_2">
     <g id="line2d_2">
      <g>
       <use xlink:href="#me0c9d91243" x="97.02875" y="202.413606" style="stroke: #000000; stroke-width: 0.8"/>
      </g>
     </g>
     <g id="text_2">
      <!-- 25 -->
      <g transform="translate(91.93875 215.492356) scale(0.08 -0.08)">
       <defs>
        <path id="DejaVuSans-32" d="M 1228 531 
L 3431 531 
L 3431 0 
L 469 0 
L 469 531 
Q 828 903 1448 1529 
Q 2069 2156 2228 2338 
Q 2531 2678 2651 2914 
Q 2772 3150 2772 3378 
Q 2772 3750 2511 3984 
Q 2250 4219 1831 4219 
Q 1534 4219 1204 4116 
Q 875 4013 500 3803 
L 500 4441 
Q 881 4594 1212 4672 
Q 1544 4750 1819 4750 
Q 2544 4750 2975 4387 
Q 3406 4025 3406 3419 
Q 3406 3131 3298 2873 
Q 3191 2616 2906 2266 
Q 2828 2175 2409 1742 
Q 1991 1309 1228 531 
z
" transform="scale(0.015625)"/>
        <path id="DejaVuSans-35" d="M 691 4666 
L 3169 4666 
L 3169 4134 
L 1269 4134 
L 1269 2991 
Q 1406 3038 1543 3061 
Q 1681 3084 1819 3084 
Q 2600 3084 3056 2656 
Q 3513 2228 3513 1497 
Q 3513 744 3044 326 
Q 2575 -91 1722 -91 
Q 1428 -91 1123 -41 
Q 819 9 494 109 
L 494 744 
Q 775 591 1075 516 
Q 1375 441 1709 441 
Q 2250 441 2565 725 
Q 2881 1009 2881 1497 
Q 2881 1984 2565 2268 
Q 2250 2553 1709 2553 
Q 1456 2553 1204 2497 
Q 953 2441 691 2322 
L 691 4666 
z
" transform="scale(0.015625)"/>
       </defs>
       <use xlink:href="#DejaVuSans-32"/>
       <use xlink:href="#DejaVuSans-35" x="63.623047"/>
      </g>
     </g>
    </g>
    <g id="xtick_3">
     <g id="line2d_3">
      <g>
       <use xlink:href="#me0c9d91243" x="145.550489" y="202.413606" style="stroke: #000000; stroke-width: 0.8"/>
      </g>
     </g>
     <g id="text_3">
      <!-- 50 -->
      <g transform="translate(140.460489 215.492356) scale(0.08 -0.08)">
       <use xlink:href="#DejaVuSans-35"/>
       <use xlink:href="#DejaVuSans-30" x="63.623047"/>
      </g>
     </g>
    </g>
    <g id="xtick_4">
     <g id="line2d_4">
      <g>
       <use xlink:href="#me0c9d91243" x="194.072228" y="202.413606" style="stroke: #000000; stroke-width: 0.8"/>
      </g>
     </g>
     <g id="text_4">
      <!-- 75 -->
      <g transform="translate(188.982228 215.492356) scale(0.08 -0.08)">
       <defs>
        <path id="DejaVuSans-37" d="M 525 4666 
L 3525 4666 
L 3525 4397 
L 1831 0 
L 1172 0 
L 2766 4134 
L 525 4134 
L 525 4666 
z
" transform="scale(0.015625)"/>
       </defs>
       <use xlink:href="#DejaVuSans-37"/>
       <use xlink:href="#DejaVuSans-35" x="63.623047"/>
      </g>
     </g>
    </g>
    <g id="text_5">
     <!-- Overlap(%) -->
     <g transform="translate(98.643995 227.234856) scale(0.08 -0.08)">
      <defs>
       <path id="DejaVuSans-4f" d="M 2522 4238 
Q 1834 4238 1429 3725 
Q 1025 3213 1025 2328 
Q 1025 1447 1429 934 
Q 1834 422 2522 422 
Q 3209 422 3611 934 
Q 4013 1447 4013 2328 
Q 4013 3213 3611 3725 
Q 3209 4238 2522 4238 
z
M 2522 4750 
Q 3503 4750 4090 4092 
Q 4678 3434 4678 2328 
Q 4678 1225 4090 567 
Q 3503 -91 2522 -91 
Q 1538 -91 948 565 
Q 359 1222 359 2328 
Q 359 3434 948 4092 
Q 1538 4750 2522 4750 
z
" transform="scale(0.015625)"/>
       <path id="DejaVuSans-76" d="M 191 3500 
L 800 3500 
L 1894 563 
L 2988 3500 
L 3597 3500 
L 2284 0 
L 1503 0 
L 191 3500 
z
" transform="scale(0.015625)"/>
       <path id="DejaVuSans-65" d="M 3597 1894 
L 3597 1613 
L 953 1613 
Q 991 1019 1311 708 
Q 1631 397 2203 397 
Q 2534 397 2845 478 
Q 3156 559 3463 722 
L 3463 178 
Q 3153 47 2828 -22 
Q 2503 -91 2169 -91 
Q 1331 -91 842 396 
Q 353 884 353 1716 
Q 353 2575 817 3079 
Q 1281 3584 2069 3584 
Q 2775 3584 3186 3129 
Q 3597 2675 3597 1894 
z
M 3022 2063 
Q 3016 2534 2758 2815 
Q 2500 3097 2075 3097 
Q 1594 3097 1305 2825 
Q 1016 2553 972 2059 
L 3022 2063 
z
" transform="scale(0.015625)"/>
       <path id="DejaVuSans-72" d="M 2631 2963 
Q 2534 3019 2420 3045 
Q 2306 3072 2169 3072 
Q 1681 3072 1420 2755 
Q 1159 2438 1159 1844 
L 1159 0 
L 581 0 
L 581 3500 
L 1159 3500 
L 1159 2956 
Q 1341 3275 1631 3429 
Q 1922 3584 2338 3584 
Q 2397 3584 2469 3576 
Q 2541 3569 2628 3553 
L 2631 2963 
z
" transform="scale(0.015625)"/>
       <path id="DejaVuSans-6c" d="M 603 4863 
L 1178 4863 
L 1178 0 
L 603 0 
L 603 4863 
z
" transform="scale(0.015625)"/>
       <path id="DejaVuSans-61" d="M 2194 1759 
Q 1497 1759 1228 1600 
Q 959 1441 959 1056 
Q 959 750 1161 570 
Q 1363 391 1709 391 
Q 2188 391 2477 730 
Q 2766 1069 2766 1631 
L 2766 1759 
L 2194 1759 
z
M 3341 1997 
L 3341 0 
L 2766 0 
L 2766 531 
Q 2569 213 2275 61 
Q 1981 -91 1556 -91 
Q 1019 -91 701 211 
Q 384 513 384 1019 
Q 384 1609 779 1909 
Q 1175 2209 1959 2209 
L 2766 2209 
L 2766 2266 
Q 2766 2663 2505 2880 
Q 2244 3097 1772 3097 
Q 1472 3097 1187 3025 
Q 903 2953 641 2809 
L 641 3341 
Q 956 3463 1253 3523 
Q 1550 3584 1831 3584 
Q 2591 3584 2966 3190 
Q 3341 2797 3341 1997 
z
" transform="scale(0.015625)"/>
       <path id="DejaVuSans-70" d="M 1159 525 
L 1159 -1331 
L 581 -1331 
L 581 3500 
L 1159 3500 
L 1159 2969 
Q 1341 3281 1617 3432 
Q 1894 3584 2278 3584 
Q 2916 3584 3314 3078 
Q 3713 2572 3713 1747 
Q 3713 922 3314 415 
Q 2916 -91 2278 -91 
Q 1894 -91 1617 61 
Q 1341 213 1159 525 
z
M 3116 1747 
Q 3116 2381 2855 2742 
Q 2594 3103 2138 3103 
Q 1681 3103 1420 2742 
Q 1159 2381 1159 1747 
Q 1159 1113 1420 752 
Q 1681 391 2138 391 
Q 2594 391 2855 752 
Q 3116 1113 3116 1747 
z
" transform="scale(0.015625)"/>
       <path id="DejaVuSans-28" d="M 1984 4856 
Q 1566 4138 1362 3434 
Q 1159 2731 1159 2009 
Q 1159 1288 1364 580 
Q 1569 -128 1984 -844 
L 1484 -844 
Q 1016 -109 783 600 
Q 550 1309 550 2009 
Q 550 2706 781 3412 
Q 1013 4119 1484 4856 
L 1984 4856 
z
" transform="scale(0.015625)"/>
       <path id="DejaVuSans-25" d="M 4653 2053 
Q 4381 2053 4226 1822 
Q 4072 1591 4072 1178 
Q 4072 772 4226 539 
Q 4381 306 4653 306 
Q 4919 306 5073 539 
Q 5228 772 5228 1178 
Q 5228 1588 5073 1820 
Q 4919 2053 4653 2053 
z
M 4653 2450 
Q 5147 2450 5437 2106 
Q 5728 1763 5728 1178 
Q 5728 594 5436 251 
Q 5144 -91 4653 -91 
Q 4153 -91 3862 251 
Q 3572 594 3572 1178 
Q 3572 1766 3864 2108 
Q 4156 2450 4653 2450 
z
M 1428 4353 
Q 1159 4353 1004 4120 
Q 850 3888 850 3481 
Q 850 3069 1003 2837 
Q 1156 2606 1428 2606 
Q 1700 2606 1854 2837 
Q 2009 3069 2009 3481 
Q 2009 3884 1853 4118 
Q 1697 4353 1428 4353 
z
M 4250 4750 
L 4750 4750 
L 1831 -91 
L 1331 -91 
L 4250 4750 
z
M 1428 4750 
Q 1922 4750 2215 4408 
Q 2509 4066 2509 3481 
Q 2509 2891 2217 2550 
Q 1925 2209 1428 2209 
Q 931 2209 642 2551 
Q 353 2894 353 3481 
Q 353 4063 643 4406 
Q 934 4750 1428 4750 
z
" transform="scale(0.015625)"/>
       <path id="DejaVuSans-29" d="M 513 4856 
L 1013 4856 
Q 1481 4119 1714 3412 
Q 1947 2706 1947 2009 
Q 1947 1309 1714 600 
Q 1481 -109 1013 -844 
L 513 -844 
Q 928 -128 1133 580 
Q 1338 1288 1338 2009 
Q 1338 2731 1133 3434 
Q 928 4138 513 4856 
z
" transform="scale(0.015625)"/>
      </defs>
      <use xlink:href="#DejaVuSans-4f"/>
      <use xlink:href="#DejaVuSans-76" x="78.710938"/>
      <use xlink:href="#DejaVuSans-65" x="137.890625"/>
      <use xlink:href="#DejaVuSans-72" x="199.414062"/>
      <use xlink:href="#DejaVuSans-6c" x="240.527344"/>
      <use xlink:href="#DejaVuSans-61" x="268.310547"/>
      <use xlink:href="#DejaVuSans-70" x="329.589844"/>
      <use xlink:href="#DejaVuSans-28" x="393.066406"/>
      <use xlink:href="#DejaVuSans-25" x="432.080078"/>
      <use xlink:href="#DejaVuSans-29" x="527.099609"/>
     </g>
    </g>
   </g>
   <g id="matplotlib.axis_2">
    <g id="ytick_1">
     <g id="line2d_5">
      <defs>
       <path id="mbb89f19260" d="M 0 0 
L -3.5 0 
" style="stroke: #000000; stroke-width: 0.8"/>
      </defs>
      <g>
       <use xlink:href="#mbb89f19260" x="41.22875" y="196.816298" style="stroke: #000000; stroke-width: 0.8"/>
      </g>
     </g>
     <g id="text_6">
      <!-- 0 -->
      <g transform="translate(29.13875 199.855673) scale(0.08 -0.08)">
       <use xlink:href="#DejaVuSans-30"/>
      </g>
     </g>
    </g>
    <g id="ytick_2">
     <g id="line2d_6">
      <g>
       <use xlink:href="#mbb89f19260" x="41.22875" y="159.500913" style="stroke: #000000; stroke-width: 0.8"/>
      </g>
     </g>
     <g id="text_7">
      <!-- 20 -->
      <g transform="translate(24.04875 162.540288) scale(0.08 -0.08)">
       <use xlink:href="#DejaVuSans-32"/>
       <use xlink:href="#DejaVuSans-30" x="63.623047"/>
      </g>
     </g>
    </g>
    <g id="ytick_3">
     <g id="line2d_7">
      <g>
       <use xlink:href="#mbb89f19260" x="41.22875" y="122.185529" style="stroke: #000000; stroke-width: 0.8"/>
      </g>
     </g>
     <g id="text_8">
      <!-- 40 -->
      <g transform="translate(24.04875 125.224904) scale(0.08 -0.08)">
       <defs>
        <path id="DejaVuSans-34" d="M 2419 4116 
L 825 1625 
L 2419 1625 
L 2419 4116 
z
M 2253 4666 
L 3047 4666 
L 3047 1625 
L 3713 1625 
L 3713 1100 
L 3047 1100 
L 3047 0 
L 2419 0 
L 2419 1100 
L 313 1100 
L 313 1709 
L 2253 4666 
z
" transform="scale(0.015625)"/>
       </defs>
       <use xlink:href="#DejaVuSans-34"/>
       <use xlink:href="#DejaVuSans-30" x="63.623047"/>
      </g>
     </g>
    </g>
    <g id="ytick_4">
     <g id="line2d_8">
      <g>
       <use xlink:href="#mbb89f19260" x="41.22875" y="84.870144" style="stroke: #000000; stroke-width: 0.8"/>
      </g>
     </g>
     <g id="text_9">
      <!-- 60 -->
      <g transform="translate(24.04875 87.909519) scale(0.08 -0.08)">
       <defs>
        <path id="DejaVuSans-36" d="M 2113 2584 
Q 1688 2584 1439 2293 
Q 1191 2003 1191 1497 
Q 1191 994 1439 701 
Q 1688 409 2113 409 
Q 2538 409 2786 701 
Q 3034 994 3034 1497 
Q 3034 2003 2786 2293 
Q 2538 2584 2113 2584 
z
M 3366 4563 
L 3366 3988 
Q 3128 4100 2886 4159 
Q 2644 4219 2406 4219 
Q 1781 4219 1451 3797 
Q 1122 3375 1075 2522 
Q 1259 2794 1537 2939 
Q 1816 3084 2150 3084 
Q 2853 3084 3261 2657 
Q 3669 2231 3669 1497 
Q 3669 778 3244 343 
Q 2819 -91 2113 -91 
Q 1303 -91 875 529 
Q 447 1150 447 2328 
Q 447 3434 972 4092 
Q 1497 4750 2381 4750 
Q 2619 4750 2861 4703 
Q 3103 4656 3366 4563 
z
" transform="scale(0.015625)"/>
       </defs>
       <use xlink:href="#DejaVuSans-36"/>
       <use xlink:href="#DejaVuSans-30" x="63.623047"/>
      </g>
     </g>
    </g>
    <g id="ytick_5">
     <g id="line2d_9">
      <g>
       <use xlink:href="#mbb89f19260" x="41.22875" y="47.55476" style="stroke: #000000; stroke-width: 0.8"/>
      </g>
     </g>
     <g id="text_10">
      <!-- 80 -->
      <g transform="translate(24.04875 50.594135) scale(0.08 -0.08)">
       <defs>
        <path id="DejaVuSans-38" d="M 2034 2216 
Q 1584 2216 1326 1975 
Q 1069 1734 1069 1313 
Q 1069 891 1326 650 
Q 1584 409 2034 409 
Q 2484 409 2743 651 
Q 3003 894 3003 1313 
Q 3003 1734 2745 1975 
Q 2488 2216 2034 2216 
z
M 1403 2484 
Q 997 2584 770 2862 
Q 544 3141 544 3541 
Q 544 4100 942 4425 
Q 1341 4750 2034 4750 
Q 2731 4750 3128 4425 
Q 3525 4100 3525 3541 
Q 3525 3141 3298 2862 
Q 3072 2584 2669 2484 
Q 3125 2378 3379 2068 
Q 3634 1759 3634 1313 
Q 3634 634 3220 271 
Q 2806 -91 2034 -91 
Q 1263 -91 848 271 
Q 434 634 434 1313 
Q 434 1759 690 2068 
Q 947 2378 1403 2484 
z
M 1172 3481 
Q 1172 3119 1398 2916 
Q 1625 2713 2034 2713 
Q 2441 2713 2670 2916 
Q 2900 3119 2900 3481 
Q 2900 3844 2670 4047 
Q 2441 4250 2034 4250 
Q 1625 4250 1398 4047 
Q 1172 3844 1172 3481 
z
" transform="scale(0.015625)"/>
       </defs>
       <use xlink:href="#DejaVuSans-38"/>
       <use xlink:href="#DejaVuSans-30" x="63.623047"/>
      </g>
     </g>
    </g>
    <g id="ytick_6">
     <g id="line2d_10">
      <g>
       <use xlink:href="#mbb89f19260" x="41.22875" y="10.239375" style="stroke: #000000; stroke-width: 0.8"/>
      </g>
     </g>
     <g id="text_11">
      <!-- 100 -->
      <g transform="translate(18.95875 13.27875) scale(0.08 -0.08)">
       <defs>
        <path id="DejaVuSans-31" d="M 794 531 
L 1825 531 
L 1825 4091 
L 703 3866 
L 703 4441 
L 1819 4666 
L 2450 4666 
L 2450 531 
L 3481 531 
L 3481 0 
L 794 0 
L 794 531 
z
" transform="scale(0.015625)"/>
       </defs>
       <use xlink:href="#DejaVuSans-31"/>
       <use xlink:href="#DejaVuSans-30" x="63.623047"/>
       <use xlink:href="#DejaVuSans-30" x="127.246094"/>
      </g>
     </g>
    </g>
    <g id="text_12">
     <!-- Efficiency: ζ(%) -->
     <g transform="translate(13.27875 136.148606) rotate(-90) scale(0.08 -0.08)">
      <defs>
       <path id="DejaVuSans-45" d="M 628 4666 
L 3578 4666 
L 3578 4134 
L 1259 4134 
L 1259 2753 
L 3481 2753 
L 3481 2222 
L 1259 2222 
L 1259 531 
L 3634 531 
L 3634 0 
L 628 0 
L 628 4666 
z
" transform="scale(0.015625)"/>
       <path id="DejaVuSans-66" d="M 2375 4863 
L 2375 4384 
L 1825 4384 
Q 1516 4384 1395 4259 
Q 1275 4134 1275 3809 
L 1275 3500 
L 2222 3500 
L 2222 3053 
L 1275 3053 
L 1275 0 
L 697 0 
L 697 3053 
L 147 3053 
L 147 3500 
L 697 3500 
L 697 3744 
Q 697 4328 969 4595 
Q 1241 4863 1831 4863 
L 2375 4863 
z
" transform="scale(0.015625)"/>
       <path id="DejaVuSans-69" d="M 603 3500 
L 1178 3500 
L 1178 0 
L 603 0 
L 603 3500 
z
M 603 4863 
L 1178 4863 
L 1178 4134 
L 603 4134 
L 603 4863 
z
" transform="scale(0.015625)"/>
       <path id="DejaVuSans-63" d="M 3122 3366 
L 3122 2828 
Q 2878 2963 2633 3030 
Q 2388 3097 2138 3097 
Q 1578 3097 1268 2742 
Q 959 2388 959 1747 
Q 959 1106 1268 751 
Q 1578 397 2138 397 
Q 2388 397 2633 464 
Q 2878 531 3122 666 
L 3122 134 
Q 2881 22 2623 -34 
Q 2366 -91 2075 -91 
Q 1284 -91 818 406 
Q 353 903 353 1747 
Q 353 2603 823 3093 
Q 1294 3584 2113 3584 
Q 2378 3584 2631 3529 
Q 2884 3475 3122 3366 
z
" transform="scale(0.015625)"/>
       <path id="DejaVuSans-6e" d="M 3513 2113 
L 3513 0 
L 2938 0 
L 2938 2094 
Q 2938 2591 2744 2837 
Q 2550 3084 2163 3084 
Q 1697 3084 1428 2787 
Q 1159 2491 1159 1978 
L 1159 0 
L 581 0 
L 581 3500 
L 1159 3500 
L 1159 2956 
Q 1366 3272 1645 3428 
Q 1925 3584 2291 3584 
Q 2894 3584 3203 3211 
Q 3513 2838 3513 2113 
z
" transform="scale(0.015625)"/>
       <path id="DejaVuSans-79" d="M 2059 -325 
Q 1816 -950 1584 -1140 
Q 1353 -1331 966 -1331 
L 506 -1331 
L 506 -850 
L 844 -850 
Q 1081 -850 1212 -737 
Q 1344 -625 1503 -206 
L 1606 56 
L 191 3500 
L 800 3500 
L 1894 763 
L 2988 3500 
L 3597 3500 
L 2059 -325 
z
" transform="scale(0.015625)"/>
       <path id="DejaVuSans-3a" d="M 750 794 
L 1409 794 
L 1409 0 
L 750 0 
L 750 794 
z
M 750 3309 
L 1409 3309 
L 1409 2516 
L 750 2516 
L 750 3309 
z
" transform="scale(0.015625)"/>
       <path id="DejaVuSans-20" transform="scale(0.015625)"/>
       <path id="DejaVuSans-3b6" d="M 2231 397 
Q 2644 394 2891 159 
Q 3153 -88 3153 -463 
Q 3153 -822 2922 -1072 
Q 2672 -1344 2163 -1344 
Q 2163 -1109 2163 -872 
Q 2378 -888 2509 -750 
Q 2609 -641 2609 -525 
Q 2609 -359 2509 -222 
Q 2413 -91 2231 -91 
Q 338 -91 334 1669 
Q 334 3206 2119 4284 
L 456 4284 
L 456 4863 
L 3175 4863 
L 3175 4284 
Q 913 3147 913 1669 
Q 913 397 2231 397 
z
" transform="scale(0.015625)"/>
      </defs>
      <use xlink:href="#DejaVuSans-45"/>
      <use xlink:href="#DejaVuSans-66" x="63.183594"/>
      <use xlink:href="#DejaVuSans-66" x="98.388672"/>
      <use xlink:href="#DejaVuSans-69" x="133.59375"/>
      <use xlink:href="#DejaVuSans-63" x="161.376953"/>
      <use xlink:href="#DejaVuSans-69" x="216.357422"/>
      <use xlink:href="#DejaVuSans-65" x="244.140625"/>
      <use xlink:href="#DejaVuSans-6e" x="305.664062"/>
      <use xlink:href="#DejaVuSans-63" x="369.042969"/>
      <use xlink:href="#DejaVuSans-79" x="424.023438"/>
      <use xlink:href="#DejaVuSans-3a" x="475.953125"/>
      <use xlink:href="#DejaVuSans-20" x="509.644531"/>
      <use xlink:href="#DejaVuSans-3b6" x="541.431641"/>
      <use xlink:href="#DejaVuSans-28" x="595.826172"/>
      <use xlink:href="#DejaVuSans-25" x="634.839844"/>
      <use xlink:href="#DejaVuSans-29" x="729.859375"/>
     </g>
    </g>
   </g>
   <g id="line2d_11">
    <path d="M 48.507011 115.323762 
L 97.02875 104.545445 
L 145.550489 106.234615 
L 194.072228 105.39268 
" clip-path="url(#p2a5ae0028b)" style="fill: none; stroke: #bdbdbd; stroke-width: 1.5; stroke-linecap: square"/>
   </g>
   <g id="LineCollection_1">
    <path d="M 48.507011 135.778941 
L 48.507011 94.868583 
" clip-path="url(#p2a5ae0028b)" style="fill: none; stroke: #969696; stroke-width: 1.5"/>
    <path d="M 97.02875 137.237308 
L 97.02875 71.853581 
" clip-path="url(#p2a5ae0028b)" style="fill: none; stroke: #969696; stroke-width: 1.5"/>
    <path d="M 145.550489 134.903343 
L 145.550489 77.565887 
" clip-path="url(#p2a5ae0028b)" style="fill: none; stroke: #969696; stroke-width: 1.5"/>
    <path d="M 194.072228 131.590571 
L 194.072228 79.194789 
" clip-path="url(#p2a5ae0028b)" style="fill: none; stroke: #969696; stroke-width: 1.5"/>
   </g>
   <g id="line2d_12">
    <path d="M 48.507011 113.683558 
L 97.02875 110.689375 
L 145.550489 110.209387 
L 194.072228 100.41351 
" clip-path="url(#p2a5ae0028b)" style="fill: none; stroke: #f4cae4; stroke-width: 1.5; stroke-linecap: square"/>
   </g>
   <g id="LineCollection_2">
    <path d="M 48.507011 133.258081 
L 48.507011 94.109034 
" clip-path="url(#p2a5ae0028b)" style="fill: none; stroke: #e78ac3; stroke-width: 1.5"/>
    <path d="M 97.02875 136.658662 
L 97.02875 84.720088 
" clip-path="url(#p2a5ae0028b)" style="fill: none; stroke: #e78ac3; stroke-width: 1.5"/>
    <path d="M 145.550489 129.524726 
L 145.550489 90.894048 
" clip-path="url(#p2a5ae0028b)" style="fill: none; stroke: #e78ac3; stroke-width: 1.5"/>
    <path d="M 194.072228 135.691886 
L 194.072228 65.135133 
" clip-path="url(#p2a5ae0028b)" style="fill: none; stroke: #e78ac3; stroke-width: 1.5"/>
   </g>
   <g id="line2d_13">
    <path d="M 48.507011 159.773005 
L 97.02875 176.603798 
L 145.550489 164.554038 
L 194.072228 156.07756 
" clip-path="url(#p2a5ae0028b)" style="fill: none; stroke: #cbd5e8; stroke-width: 1.5; stroke-linecap: square"/>
   </g>
   <g id="LineCollection_3">
    <path d="M 48.507011 175.227561 
L 48.507011 144.318449 
" clip-path="url(#p2a5ae0028b)" style="fill: none; stroke: #8da0cb; stroke-width: 1.5"/>
    <path d="M 97.02875 191.435718 
L 97.02875 161.771878 
" clip-path="url(#p2a5ae0028b)" style="fill: none; stroke: #8da0cb; stroke-width: 1.5"/>
    <path d="M 145.550489 186.545775 
L 145.550489 142.562302 
" clip-path="url(#p2a5ae0028b)" style="fill: none; stroke: #8da0cb; stroke-width: 1.5"/>
    <path d="M 194.072228 186.834572 
L 194.072228 125.320549 
" clip-path="url(#p2a5ae0028b)" style="fill: none; stroke: #8da0cb; stroke-width: 1.5"/>
   </g>
   <g id="line2d_14">
    <path d="M 48.507011 115.616466 
L 97.02875 95.977007 
L 145.550489 93.90351 
L 194.072228 115.081118 
" clip-path="url(#p2a5ae0028b)" style="fill: none; stroke: #e6f5c9; stroke-width: 1.5; stroke-linecap: square"/>
   </g>
   <g id="LineCollection_4">
    <path d="M 48.507011 138.835247 
L 48.507011 92.397685 
" clip-path="url(#p2a5ae0028b)" style="fill: none; stroke: #a6d854; stroke-width: 1.5"/>
    <path d="M 97.02875 128.909242 
L 97.02875 63.044773 
" clip-path="url(#p2a5ae0028b)" style="fill: none; stroke: #a6d854; stroke-width: 1.5"/>
    <path d="M 145.550489 115.501708 
L 145.550489 72.305312 
" clip-path="url(#p2a5ae0028b)" style="fill: none; stroke: #a6d854; stroke-width: 1.5"/>
    <path d="M 194.072228 151.841821 
L 194.072228 78.320415 
" clip-path="url(#p2a5ae0028b)" style="fill: none; stroke: #a6d854; stroke-width: 1.5"/>
   </g>
   <g id="line2d_15">
    <path d="M 48.507011 160.472668 
L 97.02875 156.002596 
L 145.550489 164.554038 
L 194.072228 161.250072 
" clip-path="url(#p2a5ae0028b)" style="fill: none; stroke: #fff2ae; stroke-width: 1.5; stroke-linecap: square"/>
   </g>
   <g id="LineCollection_5">
    <path d="M 48.507011 184.434652 
L 48.507011 136.510684 
" clip-path="url(#p2a5ae0028b)" style="fill: none; stroke: #ffd92f; stroke-width: 1.5"/>
    <path d="M 97.02875 192.600487 
L 97.02875 119.404705 
" clip-path="url(#p2a5ae0028b)" style="fill: none; stroke: #ffd92f; stroke-width: 1.5"/>
    <path d="M 145.550489 183.91514 
L 145.550489 145.192937 
" clip-path="url(#p2a5ae0028b)" style="fill: none; stroke: #ffd92f; stroke-width: 1.5"/>
    <path d="M 194.072228 191.484611 
L 194.072228 131.015533 
" clip-path="url(#p2a5ae0028b)" style="fill: none; stroke: #ffd92f; stroke-width: 1.5"/>
   </g>
   <g id="line2d_16">
    <defs>
     <path id="m68bb427d87" d="M 0 3 
C 0.795609 3 1.55874 2.683901 2.12132 2.12132 
C 2.683901 1.55874 3 0.795609 3 0 
C 3 -0.795609 2.683901 -1.55874 2.12132 -2.12132 
C 1.55874 -2.683901 0.795609 -3 0 -3 
C -0.795609 -3 -1.55874 -2.683901 -2.12132 -2.12132 
C -2.683901 -1.55874 -3 -0.795609 -3 0 
C -3 0.795609 -2.683901 1.55874 -2.12132 2.12132 
C -1.55874 2.683901 -0.795609 3 0 3 
z
" style="stroke: #969696"/>
    </defs>
    <g clip-path="url(#p2a5ae0028b)">
     <use xlink:href="#m68bb427d87" x="48.507011" y="115.323762" style="fill: #969696; stroke: #969696"/>
     <use xlink:href="#m68bb427d87" x="97.02875" y="104.545445" style="fill: #969696; stroke: #969696"/>
     <use xlink:href="#m68bb427d87" x="145.550489" y="106.234615" style="fill: #969696; stroke: #969696"/>
     <use xlink:href="#m68bb427d87" x="194.072228" y="105.39268" style="fill: #969696; stroke: #969696"/>
    </g>
   </g>
   <g id="line2d_17">
    <defs>
     <path id="m1525d26ff4" d="M 0 3 
C 0.795609 3 1.55874 2.683901 2.12132 2.12132 
C 2.683901 1.55874 3 0.795609 3 0 
C 3 -0.795609 2.683901 -1.55874 2.12132 -2.12132 
C 1.55874 -2.683901 0.795609 -3 0 -3 
C -0.795609 -3 -1.55874 -2.683901 -2.12132 -2.12132 
C -2.683901 -1.55874 -3 -0.795609 -3 0 
C -3 0.795609 -2.683901 1.55874 -2.12132 2.12132 
C -1.55874 2.683901 -0.795609 3 0 3 
z
" style="stroke: #e78ac3"/>
    </defs>
    <g clip-path="url(#p2a5ae0028b)">
     <use xlink:href="#m1525d26ff4" x="48.507011" y="113.683558" style="fill: #e78ac3; stroke: #e78ac3"/>
     <use xlink:href="#m1525d26ff4" x="97.02875" y="110.689375" style="fill: #e78ac3; stroke: #e78ac3"/>
     <use xlink:href="#m1525d26ff4" x="145.550489" y="110.209387" style="fill: #e78ac3; stroke: #e78ac3"/>
     <use xlink:href="#m1525d26ff4" x="194.072228" y="100.41351" style="fill: #e78ac3; stroke: #e78ac3"/>
    </g>
   </g>
   <g id="line2d_18">
    <defs>
     <path id="m585cfb7d68" d="M 0 3 
C 0.795609 3 1.55874 2.683901 2.12132 2.12132 
C 2.683901 1.55874 3 0.795609 3 0 
C 3 -0.795609 2.683901 -1.55874 2.12132 -2.12132 
C 1.55874 -2.683901 0.795609 -3 0 -3 
C -0.795609 -3 -1.55874 -2.683901 -2.12132 -2.12132 
C -2.683901 -1.55874 -3 -0.795609 -3 0 
C -3 0.795609 -2.683901 1.55874 -2.12132 2.12132 
C -1.55874 2.683901 -0.795609 3 0 3 
z
" style="stroke: #8da0cb"/>
    </defs>
    <g clip-path="url(#p2a5ae0028b)">
     <use xlink:href="#m585cfb7d68" x="48.507011" y="159.773005" style="fill: #8da0cb; stroke: #8da0cb"/>
     <use xlink:href="#m585cfb7d68" x="97.02875" y="176.603798" style="fill: #8da0cb; stroke: #8da0cb"/>
     <use xlink:href="#m585cfb7d68" x="145.550489" y="164.554038" style="fill: #8da0cb; stroke: #8da0cb"/>
     <use xlink:href="#m585cfb7d68" x="194.072228" y="156.07756" style="fill: #8da0cb; stroke: #8da0cb"/>
    </g>
   </g>
   <g id="line2d_19">
    <defs>
     <path id="mceb3fc3f71" d="M 0 3 
C 0.795609 3 1.55874 2.683901 2.12132 2.12132 
C 2.683901 1.55874 3 0.795609 3 0 
C 3 -0.795609 2.683901 -1.55874 2.12132 -2.12132 
C 1.55874 -2.683901 0.795609 -3 0 -3 
C -0.795609 -3 -1.55874 -2.683901 -2.12132 -2.12132 
C -2.683901 -1.55874 -3 -0.795609 -3 0 
C -3 0.795609 -2.683901 1.55874 -2.12132 2.12132 
C -1.55874 2.683901 -0.795609 3 0 3 
z
" style="stroke: #a6d854"/>
    </defs>
    <g clip-path="url(#p2a5ae0028b)">
     <use xlink:href="#mceb3fc3f71" x="48.507011" y="115.616466" style="fill: #a6d854; stroke: #a6d854"/>
     <use xlink:href="#mceb3fc3f71" x="97.02875" y="95.977007" style="fill: #a6d854; stroke: #a6d854"/>
     <use xlink:href="#mceb3fc3f71" x="145.550489" y="93.90351" style="fill: #a6d854; stroke: #a6d854"/>
     <use xlink:href="#mceb3fc3f71" x="194.072228" y="115.081118" style="fill: #a6d854; stroke: #a6d854"/>
    </g>
   </g>
   <g id="line2d_20">
    <defs>
     <path id="mc378789457" d="M 0 3 
C 0.795609 3 1.55874 2.683901 2.12132 2.12132 
C 2.683901 1.55874 3 0.795609 3 0 
C 3 -0.795609 2.683901 -1.55874 2.12132 -2.12132 
C 1.55874 -2.683901 0.795609 -3 0 -3 
C -0.795609 -3 -1.55874 -2.683901 -2.12132 -2.12132 
C -2.683901 -1.55874 -3 -0.795609 -3 0 
C -3 0.795609 -2.683901 1.55874 -2.12132 2.12132 
C -1.55874 2.683901 -0.795609 3 0 3 
z
" style="stroke: #ffd92f"/>
    </defs>
    <g clip-path="url(#p2a5ae0028b)">
     <use xlink:href="#mc378789457" x="48.507011" y="160.472668" style="fill: #ffd92f; stroke: #ffd92f"/>
     <use xlink:href="#mc378789457" x="97.02875" y="156.002596" style="fill: #ffd92f; stroke: #ffd92f"/>
     <use xlink:href="#mc378789457" x="145.550489" y="164.554038" style="fill: #ffd92f; stroke: #ffd92f"/>
     <use xlink:href="#mc378789457" x="194.072228" y="161.250072" style="fill: #ffd92f; stroke: #ffd92f"/>
    </g>
   </g>
   <g id="patch_3">
    <path d="M 41.22875 202.413606 
L 41.22875 8.373606 
" style="fill: none; stroke: #000000; stroke-width: 0.8; stroke-linejoin: miter; stroke-linecap: square"/>
   </g>
   <g id="patch_4">
    <path d="M 201.350489 202.413606 
L 201.350489 8.373606 
" style="fill: none; stroke: #000000; stroke-width: 0.8; stroke-linejoin: miter; stroke-linecap: square"/>
   </g>
   <g id="patch_5">
    <path d="M 41.22875 202.413606 
L 201.350489 202.413606 
" style="fill: none; stroke: #000000; stroke-width: 0.8; stroke-linejoin: miter; stroke-linecap: square"/>
   </g>
   <g id="patch_6">
    <path d="M 41.22875 8.373606 
L 201.350489 8.373606 
" style="fill: none; stroke: #000000; stroke-width: 0.8; stroke-linejoin: miter; stroke-linecap: square"/>
   </g>
  </g>
  <g id="axes_2">
   <g id="patch_7">
    <path d="M 249.387011 202.413606 
L 409.50875 202.413606 
L 409.50875 8.373606 
L 249.387011 8.373606 
z
" style="fill: #ffffff"/>
   </g>
   <g id="matplotlib.axis_3">
    <g id="xtick_5">
     <g id="line2d_21">
      <g>
       <use xlink:href="#me0c9d91243" x="256.665272" y="202.413606" style="stroke: #000000; stroke-width: 0.8"/>
      </g>
     </g>
     <g id="text_13">
      <!-- 1 -->
      <g transform="translate(254.120272 215.492356) scale(0.08 -0.08)">
       <use xlink:href="#DejaVuSans-31"/>
      </g>
     </g>
    </g>
    <g id="xtick_6">
     <g id="line2d_22">
      <g>
       <use xlink:href="#me0c9d91243" x="277.460303" y="202.413606" style="stroke: #000000; stroke-width: 0.8"/>
      </g>
     </g>
     <g id="text_14">
      <!-- 2 -->
      <g transform="translate(274.915303 215.492356) scale(0.08 -0.08)">
       <use xlink:href="#DejaVuSans-32"/>
      </g>
     </g>
    </g>
    <g id="xtick_7">
     <g id="line2d_23">
      <g>
       <use xlink:href="#me0c9d91243" x="298.255334" y="202.413606" style="stroke: #000000; stroke-width: 0.8"/>
      </g>
     </g>
     <g id="text_15">
      <!-- 3 -->
      <g transform="translate(295.710334 215.492356) scale(0.08 -0.08)">
       <defs>
        <path id="DejaVuSans-33" d="M 2597 2516 
Q 3050 2419 3304 2112 
Q 3559 1806 3559 1356 
Q 3559 666 3084 287 
Q 2609 -91 1734 -91 
Q 1441 -91 1130 -33 
Q 819 25 488 141 
L 488 750 
Q 750 597 1062 519 
Q 1375 441 1716 441 
Q 2309 441 2620 675 
Q 2931 909 2931 1356 
Q 2931 1769 2642 2001 
Q 2353 2234 1838 2234 
L 1294 2234 
L 1294 2753 
L 1863 2753 
Q 2328 2753 2575 2939 
Q 2822 3125 2822 3475 
Q 2822 3834 2567 4026 
Q 2313 4219 1838 4219 
Q 1578 4219 1281 4162 
Q 984 4106 628 3988 
L 628 4550 
Q 988 4650 1302 4700 
Q 1616 4750 1894 4750 
Q 2613 4750 3031 4423 
Q 3450 4097 3450 3541 
Q 3450 3153 3228 2886 
Q 3006 2619 2597 2516 
z
" transform="scale(0.015625)"/>
       </defs>
       <use xlink:href="#DejaVuSans-33"/>
      </g>
     </g>
    </g>
    <g id="xtick_8">
     <g id="line2d_24">
      <g>
       <use xlink:href="#me0c9d91243" x="319.050365" y="202.413606" style="stroke: #000000; stroke-width: 0.8"/>
      </g>
     </g>
     <g id="text_16">
      <!-- 4 -->
      <g transform="translate(316.505365 215.492356) scale(0.08 -0.08)">
       <use xlink:href="#DejaVuSans-34"/>
      </g>
     </g>
    </g>
    <g id="xtick_9">
     <g id="line2d_25">
      <g>
       <use xlink:href="#me0c9d91243" x="339.845396" y="202.413606" style="stroke: #000000; stroke-width: 0.8"/>
      </g>
     </g>
     <g id="text_17">
      <!-- 5 -->
      <g transform="translate(337.300396 215.492356) scale(0.08 -0.08)">
       <use xlink:href="#DejaVuSans-35"/>
      </g>
     </g>
    </g>
    <g id="xtick_10">
     <g id="line2d_26">
      <g>
       <use xlink:href="#me0c9d91243" x="360.640427" y="202.413606" style="stroke: #000000; stroke-width: 0.8"/>
      </g>
     </g>
     <g id="text_18">
      <!-- 6 -->
      <g transform="translate(358.095427 215.492356) scale(0.08 -0.08)">
       <use xlink:href="#DejaVuSans-36"/>
      </g>
     </g>
    </g>
    <g id="xtick_11">
     <g id="line2d_27">
      <g>
       <use xlink:href="#me0c9d91243" x="381.435458" y="202.413606" style="stroke: #000000; stroke-width: 0.8"/>
      </g>
     </g>
     <g id="text_19">
      <!-- 7 -->
      <g transform="translate(378.890458 215.492356) scale(0.08 -0.08)">
       <use xlink:href="#DejaVuSans-37"/>
      </g>
     </g>
    </g>
    <g id="xtick_12">
     <g id="line2d_28">
      <g>
       <use xlink:href="#me0c9d91243" x="402.230489" y="202.413606" style="stroke: #000000; stroke-width: 0.8"/>
      </g>
     </g>
     <g id="text_20">
      <!-- 8 -->
      <g transform="translate(399.685489 215.492356) scale(0.08 -0.08)">
       <use xlink:href="#DejaVuSans-38"/>
      </g>
     </g>
    </g>
    <g id="text_21">
     <!-- # of Co-active Assemblies -->
     <g transform="translate(276.941005 227.234856) scale(0.08 -0.08)">
      <defs>
       <path id="DejaVuSans-23" d="M 3272 2816 
L 2363 2816 
L 2100 1772 
L 3016 1772 
L 3272 2816 
z
M 2803 4594 
L 2478 3297 
L 3391 3297 
L 3719 4594 
L 4219 4594 
L 3897 3297 
L 4872 3297 
L 4872 2816 
L 3775 2816 
L 3519 1772 
L 4513 1772 
L 4513 1294 
L 3397 1294 
L 3072 0 
L 2572 0 
L 2894 1294 
L 1978 1294 
L 1656 0 
L 1153 0 
L 1478 1294 
L 494 1294 
L 494 1772 
L 1594 1772 
L 1856 2816 
L 850 2816 
L 850 3297 
L 1978 3297 
L 2297 4594 
L 2803 4594 
z
" transform="scale(0.015625)"/>
       <path id="DejaVuSans-6f" d="M 1959 3097 
Q 1497 3097 1228 2736 
Q 959 2375 959 1747 
Q 959 1119 1226 758 
Q 1494 397 1959 397 
Q 2419 397 2687 759 
Q 2956 1122 2956 1747 
Q 2956 2369 2687 2733 
Q 2419 3097 1959 3097 
z
M 1959 3584 
Q 2709 3584 3137 3096 
Q 3566 2609 3566 1747 
Q 3566 888 3137 398 
Q 2709 -91 1959 -91 
Q 1206 -91 779 398 
Q 353 888 353 1747 
Q 353 2609 779 3096 
Q 1206 3584 1959 3584 
z
" transform="scale(0.015625)"/>
       <path id="DejaVuSans-43" d="M 4122 4306 
L 4122 3641 
Q 3803 3938 3442 4084 
Q 3081 4231 2675 4231 
Q 1875 4231 1450 3742 
Q 1025 3253 1025 2328 
Q 1025 1406 1450 917 
Q 1875 428 2675 428 
Q 3081 428 3442 575 
Q 3803 722 4122 1019 
L 4122 359 
Q 3791 134 3420 21 
Q 3050 -91 2638 -91 
Q 1578 -91 968 557 
Q 359 1206 359 2328 
Q 359 3453 968 4101 
Q 1578 4750 2638 4750 
Q 3056 4750 3426 4639 
Q 3797 4528 4122 4306 
z
" transform="scale(0.015625)"/>
       <path id="DejaVuSans-2d" d="M 313 2009 
L 1997 2009 
L 1997 1497 
L 313 1497 
L 313 2009 
z
" transform="scale(0.015625)"/>
       <path id="DejaVuSans-74" d="M 1172 4494 
L 1172 3500 
L 2356 3500 
L 2356 3053 
L 1172 3053 
L 1172 1153 
Q 1172 725 1289 603 
Q 1406 481 1766 481 
L 2356 481 
L 2356 0 
L 1766 0 
Q 1100 0 847 248 
Q 594 497 594 1153 
L 594 3053 
L 172 3053 
L 172 3500 
L 594 3500 
L 594 4494 
L 1172 4494 
z
" transform="scale(0.015625)"/>
       <path id="DejaVuSans-41" d="M 2188 4044 
L 1331 1722 
L 3047 1722 
L 2188 4044 
z
M 1831 4666 
L 2547 4666 
L 4325 0 
L 3669 0 
L 3244 1197 
L 1141 1197 
L 716 0 
L 50 0 
L 1831 4666 
z
" transform="scale(0.015625)"/>
       <path id="DejaVuSans-73" d="M 2834 3397 
L 2834 2853 
Q 2591 2978 2328 3040 
Q 2066 3103 1784 3103 
Q 1356 3103 1142 2972 
Q 928 2841 928 2578 
Q 928 2378 1081 2264 
Q 1234 2150 1697 2047 
L 1894 2003 
Q 2506 1872 2764 1633 
Q 3022 1394 3022 966 
Q 3022 478 2636 193 
Q 2250 -91 1575 -91 
Q 1294 -91 989 -36 
Q 684 19 347 128 
L 347 722 
Q 666 556 975 473 
Q 1284 391 1588 391 
Q 1994 391 2212 530 
Q 2431 669 2431 922 
Q 2431 1156 2273 1281 
Q 2116 1406 1581 1522 
L 1381 1569 
Q 847 1681 609 1914 
Q 372 2147 372 2553 
Q 372 3047 722 3315 
Q 1072 3584 1716 3584 
Q 2034 3584 2315 3537 
Q 2597 3491 2834 3397 
z
" transform="scale(0.015625)"/>
       <path id="DejaVuSans-6d" d="M 3328 2828 
Q 3544 3216 3844 3400 
Q 4144 3584 4550 3584 
Q 5097 3584 5394 3201 
Q 5691 2819 5691 2113 
L 5691 0 
L 5113 0 
L 5113 2094 
Q 5113 2597 4934 2840 
Q 4756 3084 4391 3084 
Q 3944 3084 3684 2787 
Q 3425 2491 3425 1978 
L 3425 0 
L 2847 0 
L 2847 2094 
Q 2847 2600 2669 2842 
Q 2491 3084 2119 3084 
Q 1678 3084 1418 2786 
Q 1159 2488 1159 1978 
L 1159 0 
L 581 0 
L 581 3500 
L 1159 3500 
L 1159 2956 
Q 1356 3278 1631 3431 
Q 1906 3584 2284 3584 
Q 2666 3584 2933 3390 
Q 3200 3197 3328 2828 
z
" transform="scale(0.015625)"/>
       <path id="DejaVuSans-62" d="M 3116 1747 
Q 3116 2381 2855 2742 
Q 2594 3103 2138 3103 
Q 1681 3103 1420 2742 
Q 1159 2381 1159 1747 
Q 1159 1113 1420 752 
Q 1681 391 2138 391 
Q 2594 391 2855 752 
Q 3116 1113 3116 1747 
z
M 1159 2969 
Q 1341 3281 1617 3432 
Q 1894 3584 2278 3584 
Q 2916 3584 3314 3078 
Q 3713 2572 3713 1747 
Q 3713 922 3314 415 
Q 2916 -91 2278 -91 
Q 1894 -91 1617 61 
Q 1341 213 1159 525 
L 1159 0 
L 581 0 
L 581 4863 
L 1159 4863 
L 1159 2969 
z
" transform="scale(0.015625)"/>
      </defs>
      <use xlink:href="#DejaVuSans-23"/>
      <use xlink:href="#DejaVuSans-20" x="83.789062"/>
      <use xlink:href="#DejaVuSans-6f" x="115.576172"/>
      <use xlink:href="#DejaVuSans-66" x="176.757812"/>
      <use xlink:href="#DejaVuSans-20" x="211.962891"/>
      <use xlink:href="#DejaVuSans-43" x="243.75"/>
      <use xlink:href="#DejaVuSans-6f" x="313.574219"/>
      <use xlink:href="#DejaVuSans-2d" x="376.630859"/>
      <use xlink:href="#DejaVuSans-61" x="412.714844"/>
      <use xlink:href="#DejaVuSans-63" x="473.994141"/>
      <use xlink:href="#DejaVuSans-74" x="528.974609"/>
      <use xlink:href="#DejaVuSans-69" x="568.183594"/>
      <use xlink:href="#DejaVuSans-76" x="595.966797"/>
      <use xlink:href="#DejaVuSans-65" x="655.146484"/>
      <use xlink:href="#DejaVuSans-20" x="716.669922"/>
      <use xlink:href="#DejaVuSans-41" x="748.457031"/>
      <use xlink:href="#DejaVuSans-73" x="816.865234"/>
      <use xlink:href="#DejaVuSans-73" x="868.964844"/>
      <use xlink:href="#DejaVuSans-65" x="921.064453"/>
      <use xlink:href="#DejaVuSans-6d" x="982.587891"/>
      <use xlink:href="#DejaVuSans-62" x="1080"/>
      <use xlink:href="#DejaVuSans-6c" x="1143.476562"/>
      <use xlink:href="#DejaVuSans-69" x="1171.259766"/>
      <use xlink:href="#DejaVuSans-65" x="1199.042969"/>
      <use xlink:href="#DejaVuSans-73" x="1260.566406"/>
     </g>
    </g>
   </g>
   <g id="matplotlib.axis_4">
    <g id="ytick_7">
     <g id="line2d_29">
      <g>
       <use xlink:href="#mbb89f19260" x="249.387011" y="196.816298" style="stroke: #000000; stroke-width: 0.8"/>
      </g>
     </g>
     <g id="text_22">
      <!-- 0 -->
      <g transform="translate(237.297011 199.855673) scale(0.08 -0.08)">
       <use xlink:href="#DejaVuSans-30"/>
      </g>
     </g>
    </g>
    <g id="ytick_8">
     <g id="line2d_30">
      <g>
       <use xlink:href="#mbb89f19260" x="249.387011" y="159.500913" style="stroke: #000000; stroke-width: 0.8"/>
      </g>
     </g>
     <g id="text_23">
      <!-- 20 -->
      <g transform="translate(232.207011 162.540288) scale(0.08 -0.08)">
       <use xlink:href="#DejaVuSans-32"/>
       <use xlink:href="#DejaVuSans-30" x="63.623047"/>
      </g>
     </g>
    </g>
    <g id="ytick_9">
     <g id="line2d_31">
      <g>
       <use xlink:href="#mbb89f19260" x="249.387011" y="122.185529" style="stroke: #000000; stroke-width: 0.8"/>
      </g>
     </g>
     <g id="text_24">
      <!-- 40 -->
      <g transform="translate(232.207011 125.224904) scale(0.08 -0.08)">
       <use xlink:href="#DejaVuSans-34"/>
       <use xlink:href="#DejaVuSans-30" x="63.623047"/>
      </g>
     </g>
    </g>
    <g id="ytick_10">
     <g id="line2d_32">
      <g>
       <use xlink:href="#mbb89f19260" x="249.387011" y="84.870144" style="stroke: #000000; stroke-width: 0.8"/>
      </g>
     </g>
     <g id="text_25">
      <!-- 60 -->
      <g transform="translate(232.207011 87.909519) scale(0.08 -0.08)">
       <use xlink:href="#DejaVuSans-36"/>
       <use xlink:href="#DejaVuSans-30" x="63.623047"/>
      </g>
     </g>
    </g>
    <g id="ytick_11">
     <g id="line2d_33">
      <g>
       <use xlink:href="#mbb89f19260" x="249.387011" y="47.55476" style="stroke: #000000; stroke-width: 0.8"/>
      </g>
     </g>
     <g id="text_26">
      <!-- 80 -->
      <g transform="translate(232.207011 50.594135) scale(0.08 -0.08)">
       <use xlink:href="#DejaVuSans-38"/>
       <use xlink:href="#DejaVuSans-30" x="63.623047"/>
      </g>
     </g>
    </g>
    <g id="ytick_12">
     <g id="line2d_34">
      <g>
       <use xlink:href="#mbb89f19260" x="249.387011" y="10.239375" style="stroke: #000000; stroke-width: 0.8"/>
      </g>
     </g>
     <g id="text_27">
      <!-- 100 -->
      <g transform="translate(227.117011 13.27875) scale(0.08 -0.08)">
       <use xlink:href="#DejaVuSans-31"/>
       <use xlink:href="#DejaVuSans-30" x="63.623047"/>
       <use xlink:href="#DejaVuSans-30" x="127.246094"/>
      </g>
     </g>
    </g>
   </g>
   <g id="line2d_35">
    <path d="M 256.665272 115.323762 
L 277.460303 103.616178 
L 298.255334 100.983606 
L 319.050365 85.303269 
L 339.845396 136.178798 
L 360.640427 182.823029 
L 381.435458 192.151875 
L 402.230489 196.816298 
" clip-path="url(#pcb6e1ac1c7)" style="fill: none; stroke: #bdbdbd; stroke-width: 1.5; stroke-linecap: square"/>
   </g>
   <g id="LineCollection_6">
    <path d="M 256.665272 135.778941 
L 256.665272 94.868583 
" clip-path="url(#pcb6e1ac1c7)" style="fill: none; stroke: #969696; stroke-width: 1.5"/>
    <path d="M 277.460303 121.795316 
L 277.460303 85.43704 
" clip-path="url(#pcb6e1ac1c7)" style="fill: none; stroke: #969696; stroke-width: 1.5"/>
    <path d="M 298.255334 124.533605 
L 298.255334 77.433607 
" clip-path="url(#pcb6e1ac1c7)" style="fill: none; stroke: #969696; stroke-width: 1.5"/>
    <path d="M 319.050365 110.750403 
L 319.050365 59.856136 
" clip-path="url(#pcb6e1ac1c7)" style="fill: none; stroke: #969696; stroke-width: 1.5"/>
    <path d="M 339.845396 180.966976 
L 339.845396 91.39062 
" clip-path="url(#pcb6e1ac1c7)" style="fill: none; stroke: #969696; stroke-width: 1.5"/>
    <path d="M 360.640427 198.29317 
L 360.640427 167.352888 
" clip-path="url(#pcb6e1ac1c7)" style="fill: none; stroke: #969696; stroke-width: 1.5"/>
    <path d="M 381.435458 201.480721 
L 381.435458 182.823029 
" clip-path="url(#pcb6e1ac1c7)" style="fill: none; stroke: #969696; stroke-width: 1.5"/>
    <path d="M 402.230489 196.816298 
L 402.230489 196.816298 
" clip-path="url(#pcb6e1ac1c7)" style="fill: none; stroke: #969696; stroke-width: 1.5"/>
   </g>
   <g id="line2d_36">
    <path d="M 256.665272 113.683558 
L 277.460303 112.185288 
L 298.255334 107.432524 
L 319.050365 101.847668 
L 339.845396 185.15524 
L 360.640427 196.816298 
L 381.435458 196.816298 
L 402.230489 196.816298 
" clip-path="url(#pcb6e1ac1c7)" style="fill: none; stroke: #f4cae4; stroke-width: 1.5; stroke-linecap: square"/>
   </g>
   <g id="LineCollection_7">
    <path d="M 256.665272 133.258081 
L 256.665272 94.109034 
" clip-path="url(#pcb6e1ac1c7)" style="fill: none; stroke: #e78ac3; stroke-width: 1.5"/>
    <path d="M 277.460303 136.717602 
L 277.460303 87.652975 
" clip-path="url(#pcb6e1ac1c7)" style="fill: none; stroke: #e78ac3; stroke-width: 1.5"/>
    <path d="M 298.255334 120.558621 
L 298.255334 94.306427 
" clip-path="url(#pcb6e1ac1c7)" style="fill: none; stroke: #e78ac3; stroke-width: 1.5"/>
    <path d="M 319.050365 118.626718 
L 319.050365 85.068619 
" clip-path="url(#pcb6e1ac1c7)" style="fill: none; stroke: #e78ac3; stroke-width: 1.5"/>
    <path d="M 339.845396 196.816298 
L 339.845396 173.494183 
" clip-path="url(#pcb6e1ac1c7)" style="fill: none; stroke: #e78ac3; stroke-width: 1.5"/>
    <path d="M 360.640427 196.816298 
L 360.640427 196.816298 
" clip-path="url(#pcb6e1ac1c7)" style="fill: none; stroke: #e78ac3; stroke-width: 1.5"/>
    <path d="M 381.435458 196.816298 
L 381.435458 196.816298 
" clip-path="url(#pcb6e1ac1c7)" style="fill: none; stroke: #e78ac3; stroke-width: 1.5"/>
    <path d="M 402.230489 196.816298 
L 402.230489 196.816298 
" clip-path="url(#pcb6e1ac1c7)" style="fill: none; stroke: #e78ac3; stroke-width: 1.5"/>
   </g>
   <g id="line2d_37">
    <path d="M 256.665272 159.773005 
L 277.460303 196.816298 
L 298.255334 196.816298 
L 319.050365 196.816298 
L 339.845396 196.816298 
L 360.640427 196.816298 
L 381.435458 196.816298 
L 402.230489 196.816298 
" clip-path="url(#pcb6e1ac1c7)" style="fill: none; stroke: #cbd5e8; stroke-width: 1.5; stroke-linecap: square"/>
   </g>
   <g id="LineCollection_8">
    <path d="M 256.665272 175.227561 
L 256.665272 144.318449 
" clip-path="url(#pcb6e1ac1c7)" style="fill: none; stroke: #8da0cb; stroke-width: 1.5"/>
    <path d="M 277.460303 196.816298 
L 277.460303 196.816298 
" clip-path="url(#pcb6e1ac1c7)" style="fill: none; stroke: #8da0cb; stroke-width: 1.5"/>
    <path d="M 298.255334 196.816298 
L 298.255334 196.816298 
" clip-path="url(#pcb6e1ac1c7)" style="fill: none; stroke: #8da0cb; stroke-width: 1.5"/>
    <path d="M 319.050365 196.816298 
L 319.050365 196.816298 
" clip-path="url(#pcb6e1ac1c7)" style="fill: none; stroke: #8da0cb; stroke-width: 1.5"/>
    <path d="M 339.845396 196.816298 
L 339.845396 196.816298 
" clip-path="url(#pcb6e1ac1c7)" style="fill: none; stroke: #8da0cb; stroke-width: 1.5"/>
    <path d="M 360.640427 196.816298 
L 360.640427 196.816298 
" clip-path="url(#pcb6e1ac1c7)" style="fill: none; stroke: #8da0cb; stroke-width: 1.5"/>
    <path d="M 381.435458 196.816298 
L 381.435458 196.816298 
" clip-path="url(#pcb6e1ac1c7)" style="fill: none; stroke: #8da0cb; stroke-width: 1.5"/>
    <path d="M 402.230489 196.816298 
L 402.230489 196.816298 
" clip-path="url(#pcb6e1ac1c7)" style="fill: none; stroke: #8da0cb; stroke-width: 1.5"/>
   </g>
   <g id="line2d_38">
    <path d="M 256.665272 115.616466 
L 277.460303 106.884808 
L 298.255334 119.21726 
L 319.050365 145.624255 
L 339.845396 196.816298 
L 360.640427 196.816298 
L 381.435458 196.816298 
L 402.230489 196.816298 
" clip-path="url(#pcb6e1ac1c7)" style="fill: none; stroke: #e6f5c9; stroke-width: 1.5; stroke-linecap: square"/>
   </g>
   <g id="LineCollection_9">
    <path d="M 256.665272 138.835247 
L 256.665272 92.397685 
" clip-path="url(#pcb6e1ac1c7)" style="fill: none; stroke: #a6d854; stroke-width: 1.5"/>
    <path d="M 277.460303 127.871856 
L 277.460303 85.89776 
" clip-path="url(#pcb6e1ac1c7)" style="fill: none; stroke: #a6d854; stroke-width: 1.5"/>
    <path d="M 298.255334 133.94306 
L 298.255334 104.491459 
" clip-path="url(#pcb6e1ac1c7)" style="fill: none; stroke: #a6d854; stroke-width: 1.5"/>
    <path d="M 319.050365 170.495134 
L 319.050365 120.753376 
" clip-path="url(#pcb6e1ac1c7)" style="fill: none; stroke: #a6d854; stroke-width: 1.5"/>
    <path d="M 339.845396 196.816298 
L 339.845396 196.816298 
" clip-path="url(#pcb6e1ac1c7)" style="fill: none; stroke: #a6d854; stroke-width: 1.5"/>
    <path d="M 360.640427 196.816298 
L 360.640427 196.816298 
" clip-path="url(#pcb6e1ac1c7)" style="fill: none; stroke: #a6d854; stroke-width: 1.5"/>
    <path d="M 381.435458 196.816298 
L 381.435458 196.816298 
" clip-path="url(#pcb6e1ac1c7)" style="fill: none; stroke: #a6d854; stroke-width: 1.5"/>
    <path d="M 402.230489 196.816298 
L 402.230489 196.816298 
" clip-path="url(#pcb6e1ac1c7)" style="fill: none; stroke: #a6d854; stroke-width: 1.5"/>
   </g>
   <g id="line2d_39">
    <path d="M 256.665272 160.472668 
L 277.460303 86.163041 
L 298.255334 96.297981 
L 319.050365 121.136034 
L 339.845396 163.387933 
L 360.640427 196.816298 
L 381.435458 196.816298 
L 402.230489 196.816298 
" clip-path="url(#pcb6e1ac1c7)" style="fill: none; stroke: #fff2ae; stroke-width: 1.5; stroke-linecap: square"/>
   </g>
   <g id="LineCollection_10">
    <path d="M 256.665272 184.434652 
L 256.665272 136.510684 
" clip-path="url(#pcb6e1ac1c7)" style="fill: none; stroke: #ffd92f; stroke-width: 1.5"/>
    <path d="M 277.460303 105.577879 
L 277.460303 66.748203 
" clip-path="url(#pcb6e1ac1c7)" style="fill: none; stroke: #ffd92f; stroke-width: 1.5"/>
    <path d="M 298.255334 119.669409 
L 298.255334 72.926552 
" clip-path="url(#pcb6e1ac1c7)" style="fill: none; stroke: #ffd92f; stroke-width: 1.5"/>
    <path d="M 319.050365 143.2641 
L 319.050365 99.007967 
" clip-path="url(#pcb6e1ac1c7)" style="fill: none; stroke: #ffd92f; stroke-width: 1.5"/>
    <path d="M 339.845396 186.98057 
L 339.845396 139.795295 
" clip-path="url(#pcb6e1ac1c7)" style="fill: none; stroke: #ffd92f; stroke-width: 1.5"/>
    <path d="M 360.640427 196.816298 
L 360.640427 196.816298 
" clip-path="url(#pcb6e1ac1c7)" style="fill: none; stroke: #ffd92f; stroke-width: 1.5"/>
    <path d="M 381.435458 196.816298 
L 381.435458 196.816298 
" clip-path="url(#pcb6e1ac1c7)" style="fill: none; stroke: #ffd92f; stroke-width: 1.5"/>
    <path d="M 402.230489 196.816298 
L 402.230489 196.816298 
" clip-path="url(#pcb6e1ac1c7)" style="fill: none; stroke: #ffd92f; stroke-width: 1.5"/>
   </g>
   <g id="line2d_40">
    <g clip-path="url(#pcb6e1ac1c7)">
     <use xlink:href="#m68bb427d87" x="256.665272" y="115.323762" style="fill: #969696; stroke: #969696"/>
     <use xlink:href="#m68bb427d87" x="277.460303" y="103.616178" style="fill: #969696; stroke: #969696"/>
     <use xlink:href="#m68bb427d87" x="298.255334" y="100.983606" style="fill: #969696; stroke: #969696"/>
     <use xlink:href="#m68bb427d87" x="319.050365" y="85.303269" style="fill: #969696; stroke: #969696"/>
     <use xlink:href="#m68bb427d87" x="339.845396" y="136.178798" style="fill: #969696; stroke: #969696"/>
     <use xlink:href="#m68bb427d87" x="360.640427" y="182.823029" style="fill: #969696; stroke: #969696"/>
     <use xlink:href="#m68bb427d87" x="381.435458" y="192.151875" style="fill: #969696; stroke: #969696"/>
     <use xlink:href="#m68bb427d87" x="402.230489" y="196.816298" style="fill: #969696; stroke: #969696"/>
    </g>
   </g>
   <g id="line2d_41">
    <g clip-path="url(#pcb6e1ac1c7)">
     <use xlink:href="#m1525d26ff4" x="256.665272" y="113.683558" style="fill: #e78ac3; stroke: #e78ac3"/>
     <use xlink:href="#m1525d26ff4" x="277.460303" y="112.185288" style="fill: #e78ac3; stroke: #e78ac3"/>
     <use xlink:href="#m1525d26ff4" x="298.255334" y="107.432524" style="fill: #e78ac3; stroke: #e78ac3"/>
     <use xlink:href="#m1525d26ff4" x="319.050365" y="101.847668" style="fill: #e78ac3; stroke: #e78ac3"/>
     <use xlink:href="#m1525d26ff4" x="339.845396" y="185.15524" style="fill: #e78ac3; stroke: #e78ac3"/>
     <use xlink:href="#m1525d26ff4" x="360.640427" y="196.816298" style="fill: #e78ac3; stroke: #e78ac3"/>
     <use xlink:href="#m1525d26ff4" x="381.435458" y="196.816298" style="fill: #e78ac3; stroke: #e78ac3"/>
     <use xlink:href="#m1525d26ff4" x="402.230489" y="196.816298" style="fill: #e78ac3; stroke: #e78ac3"/>
    </g>
   </g>
   <g id="line2d_42">
    <g clip-path="url(#pcb6e1ac1c7)">
     <use xlink:href="#m585cfb7d68" x="256.665272" y="159.773005" style="fill: #8da0cb; stroke: #8da0cb"/>
     <use xlink:href="#m585cfb7d68" x="277.460303" y="196.816298" style="fill: #8da0cb; stroke: #8da0cb"/>
     <use xlink:href="#m585cfb7d68" x="298.255334" y="196.816298" style="fill: #8da0cb; stroke: #8da0cb"/>
     <use xlink:href="#m585cfb7d68" x="319.050365" y="196.816298" style="fill: #8da0cb; stroke: #8da0cb"/>
     <use xlink:href="#m585cfb7d68" x="339.845396" y="196.816298" style="fill: #8da0cb; stroke: #8da0cb"/>
     <use xlink:href="#m585cfb7d68" x="360.640427" y="196.816298" style="fill: #8da0cb; stroke: #8da0cb"/>
     <use xlink:href="#m585cfb7d68" x="381.435458" y="196.816298" style="fill: #8da0cb; stroke: #8da0cb"/>
     <use xlink:href="#m585cfb7d68" x="402.230489" y="196.816298" style="fill: #8da0cb; stroke: #8da0cb"/>
    </g>
   </g>
   <g id="line2d_43">
    <g clip-path="url(#pcb6e1ac1c7)">
     <use xlink:href="#mceb3fc3f71" x="256.665272" y="115.616466" style="fill: #a6d854; stroke: #a6d854"/>
     <use xlink:href="#mceb3fc3f71" x="277.460303" y="106.884808" style="fill: #a6d854; stroke: #a6d854"/>
     <use xlink:href="#mceb3fc3f71" x="298.255334" y="119.21726" style="fill: #a6d854; stroke: #a6d854"/>
     <use xlink:href="#mceb3fc3f71" x="319.050365" y="145.624255" style="fill: #a6d854; stroke: #a6d854"/>
     <use xlink:href="#mceb3fc3f71" x="339.845396" y="196.816298" style="fill: #a6d854; stroke: #a6d854"/>
     <use xlink:href="#mceb3fc3f71" x="360.640427" y="196.816298" style="fill: #a6d854; stroke: #a6d854"/>
     <use xlink:href="#mceb3fc3f71" x="381.435458" y="196.816298" style="fill: #a6d854; stroke: #a6d854"/>
     <use xlink:href="#mceb3fc3f71" x="402.230489" y="196.816298" style="fill: #a6d854; stroke: #a6d854"/>
    </g>
   </g>
   <g id="line2d_44">
    <g clip-path="url(#pcb6e1ac1c7)">
     <use xlink:href="#mc378789457" x="256.665272" y="160.472668" style="fill: #ffd92f; stroke: #ffd92f"/>
     <use xlink:href="#mc378789457" x="277.460303" y="86.163041" style="fill: #ffd92f; stroke: #ffd92f"/>
     <use xlink:href="#mc378789457" x="298.255334" y="96.297981" style="fill: #ffd92f; stroke: #ffd92f"/>
     <use xlink:href="#mc378789457" x="319.050365" y="121.136034" style="fill: #ffd92f; stroke: #ffd92f"/>
     <use xlink:href="#mc378789457" x="339.845396" y="163.387933" style="fill: #ffd92f; stroke: #ffd92f"/>
     <use xlink:href="#mc378789457" x="360.640427" y="196.816298" style="fill: #ffd92f; stroke: #ffd92f"/>
     <use xlink:href="#mc378789457" x="381.435458" y="196.816298" style="fill: #ffd92f; stroke: #ffd92f"/>
     <use xlink:href="#mc378789457" x="402.230489" y="196.816298" style="fill: #ffd92f; stroke: #ffd92f"/>
    </g>
   </g>
   <g id="patch_8">
    <path d="M 249.387011 202.413606 
L 249.387011 8.373606 
" style="fill: none; stroke: #000000; stroke-width: 0.8; stroke-linejoin: miter; stroke-linecap: square"/>
   </g>
   <g id="patch_9">
    <path d="M 409.50875 202.413606 
L 409.50875 8.373606 
" style="fill: none; stroke: #000000; stroke-width: 0.8; stroke-linejoin: miter; stroke-linecap: square"/>
   </g>
   <g id="patch_10">
    <path d="M 249.387011 202.413606 
L 409.50875 202.413606 
" style="fill: none; stroke: #000000; stroke-width: 0.8; stroke-linejoin: miter; stroke-linecap: square"/>
   </g>
   <g id="patch_11">
    <path d="M 249.387011 8.373606 
L 409.50875 8.373606 
" style="fill: none; stroke: #000000; stroke-width: 0.8; stroke-linejoin: miter; stroke-linecap: square"/>
   </g>
  </g>
 </g>
 <defs>
  <clipPath id="p2a5ae0028b">
   <rect x="41.22875" y="8.373606" width="160.121739" height="194.04"/>
  </clipPath>
  <clipPath id="pcb6e1ac1c7">
   <rect x="249.387011" y="8.373606" width="160.121739" height="194.04"/>
  </clipPath>
 </defs>
</svg>
