<?xml version="1.0" encoding="utf-8" standalone="no"?>
<!DOCTYPE svg PUBLIC "-//W3C//DTD SVG 1.1//EN"
  "http://www.w3.org/Graphics/SVG/1.1/DTD/svg11.dtd">
<svg xmlns:xlink="http://www.w3.org/1999/xlink" width="244.8475pt" height="152.164375pt" viewBox="0 0 244.8475 152.164375" xmlns="http://www.w3.org/2000/svg" version="1.1">
 <metadata>
  <rdf:RDF xmlns:dc="http://purl.org/dc/elements/1.1/" xmlns:cc="http://creativecommons.org/ns#" xmlns:rdf="http://www.w3.org/1999/02/22-rdf-syntax-ns#">
   <cc:Work>
    <dc:type rdf:resource="http://purl.org/dc/dcmitype/StillImage"/>
    <dc:date>2024-11-28T13:41:08.704033</dc:date>
    <dc:format>image/svg+xml</dc:format>
    <dc:creator>
     <cc:Agent>
      <dc:title>Matplotlib v3.7.0, https://matplotlib.org/</dc:title>
     </cc:Agent>
    </dc:creator>
   </cc:Work>
  </rdf:RDF>
 </metadata>
 <defs>
  <style type="text/css">*{stroke-linejoin: round; stroke-linecap: butt}</style>
 </defs>
 <g id="figure_1">
  <g id="patch_1">
   <path d="M 0 152.164375 
L 244.8475 152.164375 
L 244.8475 0 
L 0 0 
z
" style="fill: #ffffff"/>
  </g>
  <g id="axes_1">
   <g id="patch_2">
    <path d="M 47.14625 118.479375 
L 231.28625 118.479375 
L 231.28625 7.599375 
L 47.14625 7.599375 
z
" style="fill: #ffffff"/>
   </g>
   <g id="PolyCollection_1">
    <defs>
     <path id="m686184d56d" d="M 47.14625 -62.725 
L 47.14625 -46.885 
L 48.98765 -47.8354 
L 50.82905 -48.7858 
L 52.67045 -49.7362 
L 54.51185 -50.6866 
L 56.35325 -51.637 
L 58.19465 -52.5874 
L 60.03605 -53.5378 
L 61.87745 -54.4882 
L 63.71885 -55.4386 
L 65.56025 -56.389 
L 67.40165 -57.3394 
L 69.24305 -58.2898 
L 71.08445 -59.2402 
L 72.92585 -60.1906 
L 74.76725 -61.141 
L 76.60865 -62.0914 
L 76.60865 -62.725 
L 76.60865 -62.725 
L 74.76725 -62.725 
L 72.92585 -62.725 
L 71.08445 -62.725 
L 69.24305 -62.725 
L 67.40165 -62.725 
L 65.56025 -62.725 
L 63.71885 -62.725 
L 61.87745 -62.725 
L 60.03605 -62.725 
L 58.19465 -62.725 
L 56.35325 -62.725 
L 54.51185 -62.725 
L 52.67045 -62.725 
L 50.82905 -62.725 
L 48.98765 -62.725 
L 47.14625 -62.725 
z
" style="stroke: #b3cde3"/>
    </defs>
    <g clip-path="url(#pfe408d884b)">
     <use xlink:href="#m686184d56d" x="0" y="152.164375" style="fill: #b3cde3; stroke: #b3cde3"/>
    </g>
   </g>
   <g id="PolyCollection_2">
    <defs>
     <path id="m4a0c346d62" d="M 78.45005 -62.725 
L 78.45005 -63.0418 
L 80.29145 -63.9922 
L 82.13285 -64.9426 
L 83.97425 -65.893 
L 85.81565 -66.8434 
L 87.65705 -67.7938 
L 89.49845 -68.7442 
L 91.33985 -69.6946 
L 93.18125 -70.645 
L 95.02265 -71.5954 
L 96.86405 -72.5458 
L 98.70545 -73.4962 
L 100.54685 -74.4466 
L 102.38825 -75.397 
L 104.22965 -76.3474 
L 106.07105 -77.2978 
L 107.91245 -78.2482 
L 109.75385 -79.1986 
L 111.59525 -80.149 
L 113.43665 -81.0994 
L 115.27805 -82.0498 
L 117.11945 -83.0002 
L 118.96085 -83.9506 
L 120.80225 -84.901 
L 122.64365 -85.8514 
L 124.48505 -86.8018 
L 126.32645 -87.7522 
L 128.16785 -88.7026 
L 130.00925 -89.653 
L 131.85065 -90.6034 
L 133.69205 -91.5538 
L 135.53345 -92.5042 
L 137.37485 -93.4546 
L 139.21625 -94.405 
L 141.05765 -95.3554 
L 142.89905 -96.3058 
L 144.74045 -97.2562 
L 146.58185 -98.2066 
L 148.42325 -99.157 
L 150.26465 -100.1074 
L 152.10605 -101.0578 
L 153.94745 -102.0082 
L 155.78885 -102.9586 
L 157.63025 -103.909 
L 159.47165 -104.8594 
L 161.31305 -105.8098 
L 163.15445 -106.7602 
L 164.99585 -107.7106 
L 166.83725 -108.661 
L 168.67865 -109.6114 
L 170.52005 -110.5618 
L 172.36145 -111.5122 
L 174.20285 -112.4626 
L 176.04425 -113.413 
L 177.88565 -114.3634 
L 179.72705 -115.3138 
L 181.56845 -116.2642 
L 183.40985 -117.2146 
L 185.25125 -118.165 
L 187.09265 -119.1154 
L 188.93405 -120.0658 
L 190.77545 -121.0162 
L 192.61685 -121.9666 
L 194.45825 -122.917 
L 196.29965 -123.8674 
L 198.14105 -124.8178 
L 199.98245 -125.7682 
L 201.82385 -126.7186 
L 203.66525 -127.669 
L 205.50665 -128.6194 
L 207.34805 -129.5698 
L 209.18945 -130.5202 
L 211.03085 -131.4706 
L 212.87225 -132.421 
L 214.71365 -133.3714 
L 216.55505 -134.3218 
L 218.39645 -135.2722 
L 220.23785 -136.2226 
L 222.07925 -137.173 
L 223.92065 -138.1234 
L 225.76205 -139.0738 
L 227.60345 -140.0242 
L 229.44485 -140.9746 
L 231.28625 -141.925 
L 233.12765 -142.8754 
L 234.96905 -143.8258 
L 236.81045 -144.7762 
L 238.65185 -145.7266 
L 240.49325 -146.677 
L 242.33465 -147.6274 
L 244.17605 -148.5778 
L 246.01745 -149.5282 
L 247.85885 -150.4786 
L 247.85885 -62.725 
L 247.85885 -62.725 
L 246.01745 -62.725 
L 244.17605 -62.725 
L 242.33465 -62.725 
L 240.49325 -62.725 
L 238.65185 -62.725 
L 236.81045 -62.725 
L 234.96905 -62.725 
L 233.12765 -62.725 
L 231.28625 -62.725 
L 229.44485 -62.725 
L 227.60345 -62.725 
L 225.76205 -62.725 
L 223.92065 -62.725 
L 222.07925 -62.725 
L 220.23785 -62.725 
L 218.39645 -62.725 
L 216.55505 -62.725 
L 214.71365 -62.725 
L 212.87225 -62.725 
L 211.03085 -62.725 
L 209.18945 -62.725 
L 207.34805 -62.725 
L 205.50665 -62.725 
L 203.66525 -62.725 
L 201.82385 -62.725 
L 199.98245 -62.725 
L 198.14105 -62.725 
L 196.29965 -62.725 
L 194.45825 -62.725 
L 192.61685 -62.725 
L 190.77545 -62.725 
L 188.93405 -62.725 
L 187.09265 -62.725 
L 185.25125 -62.725 
L 183.40985 -62.725 
L 181.56845 -62.725 
L 179.72705 -62.725 
L 177.88565 -62.725 
L 176.04425 -62.725 
L 174.20285 -62.725 
L 172.36145 -62.725 
L 170.52005 -62.725 
L 168.67865 -62.725 
L 166.83725 -62.725 
L 164.99585 -62.725 
L 163.15445 -62.725 
L 161.31305 -62.725 
L 159.47165 -62.725 
L 157.63025 -62.725 
L 155.78885 -62.725 
L 153.94745 -62.725 
L 152.10605 -62.725 
L 150.26465 -62.725 
L 148.42325 -62.725 
L 146.58185 -62.725 
L 144.74045 -62.725 
L 142.89905 -62.725 
L 141.05765 -62.725 
L 139.21625 -62.725 
L 137.37485 -62.725 
L 135.53345 -62.725 
L 133.69205 -62.725 
L 131.85065 -62.725 
L 130.00925 -62.725 
L 128.16785 -62.725 
L 126.32645 -62.725 
L 124.48505 -62.725 
L 122.64365 -62.725 
L 120.80225 -62.725 
L 118.96085 -62.725 
L 117.11945 -62.725 
L 115.27805 -62.725 
L 113.43665 -62.725 
L 111.59525 -62.725 
L 109.75385 -62.725 
L 107.91245 -62.725 
L 106.07105 -62.725 
L 104.22965 -62.725 
L 102.38825 -62.725 
L 100.54685 -62.725 
L 98.70545 -62.725 
L 96.86405 -62.725 
L 95.02265 -62.725 
L 93.18125 -62.725 
L 91.33985 -62.725 
L 89.49845 -62.725 
L 87.65705 -62.725 
L 85.81565 -62.725 
L 83.97425 -62.725 
L 82.13285 -62.725 
L 80.29145 -62.725 
L 78.45005 -62.725 
z
" style="stroke: #fbb4ae"/>
    </defs>
    <g clip-path="url(#pfe408d884b)">
     <use xlink:href="#m4a0c346d62" x="0" y="152.164375" style="fill: #fbb4ae; stroke: #fbb4ae"/>
    </g>
   </g>
   <g id="matplotlib.axis_1">
    <g id="xtick_1">
     <g id="line2d_1">
      <defs>
       <path id="m6778757eaf" d="M 0 0 
L 0 3.5 
" style="stroke: #000000; stroke-width: 0.8"/>
      </defs>
      <g>
       <use xlink:href="#m6778757eaf" x="47.14625" y="118.479375" style="stroke: #000000; stroke-width: 0.8"/>
      </g>
     </g>
     <g id="text_1">
      <!-- 0.0 -->
      <g transform="translate(40.785 131.558125) scale(0.08 -0.08)">
       <defs>
        <path id="DejaVuSans-30" d="M 2034 4250 
Q 1547 4250 1301 3770 
Q 1056 3291 1056 2328 
Q 1056 1369 1301 889 
Q 1547 409 2034 409 
Q 2525 409 2770 889 
Q 3016 1369 3016 2328 
Q 3016 3291 2770 3770 
Q 2525 4250 2034 4250 
z
M 2034 4750 
Q 2819 4750 3233 4129 
Q 3647 3509 3647 2328 
Q 3647 1150 3233 529 
Q 2819 -91 2034 -91 
Q 1250 -91 836 529 
Q 422 1150 422 2328 
Q 422 3509 836 4129 
Q 1250 4750 2034 4750 
z
" transform="scale(0.015625)"/>
        <path id="DejaVuSans-2e" d="M 684 794 
L 1344 794 
L 1344 0 
L 684 0 
L 684 794 
z
" transform="scale(0.015625)"/>
       </defs>
       <use xlink:href="#DejaVuSans-30"/>
       <use xlink:href="#DejaVuSans-2e" x="63.623047"/>
       <use xlink:href="#DejaVuSans-30" x="95.410156"/>
      </g>
     </g>
    </g>
    <g id="xtick_2">
     <g id="line2d_2">
      <g>
       <use xlink:href="#m6778757eaf" x="83.97425" y="118.479375" style="stroke: #000000; stroke-width: 0.8"/>
      </g>
     </g>
     <g id="text_2">
      <!-- 0.2 -->
      <g transform="translate(77.613 131.558125) scale(0.08 -0.08)">
       <defs>
        <path id="DejaVuSans-32" d="M 1228 531 
L 3431 531 
L 3431 0 
L 469 0 
L 469 531 
Q 828 903 1448 1529 
Q 2069 2156 2228 2338 
Q 2531 2678 2651 2914 
Q 2772 3150 2772 3378 
Q 2772 3750 2511 3984 
Q 2250 4219 1831 4219 
Q 1534 4219 1204 4116 
Q 875 4013 500 3803 
L 500 4441 
Q 881 4594 1212 4672 
Q 1544 4750 1819 4750 
Q 2544 4750 2975 4387 
Q 3406 4025 3406 3419 
Q 3406 3131 3298 2873 
Q 3191 2616 2906 2266 
Q 2828 2175 2409 1742 
Q 1991 1309 1228 531 
z
" transform="scale(0.015625)"/>
       </defs>
       <use xlink:href="#DejaVuSans-30"/>
       <use xlink:href="#DejaVuSans-2e" x="63.623047"/>
       <use xlink:href="#DejaVuSans-32" x="95.410156"/>
      </g>
     </g>
    </g>
    <g id="xtick_3">
     <g id="line2d_3">
      <g>
       <use xlink:href="#m6778757eaf" x="120.80225" y="118.479375" style="stroke: #000000; stroke-width: 0.8"/>
      </g>
     </g>
     <g id="text_3">
      <!-- 0.4 -->
      <g transform="translate(114.441 131.558125) scale(0.08 -0.08)">
       <defs>
        <path id="DejaVuSans-34" d="M 2419 4116 
L 825 1625 
L 2419 1625 
L 2419 4116 
z
M 2253 4666 
L 3047 4666 
L 3047 1625 
L 3713 1625 
L 3713 1100 
L 3047 1100 
L 3047 0 
L 2419 0 
L 2419 1100 
L 313 1100 
L 313 1709 
L 2253 4666 
z
" transform="scale(0.015625)"/>
       </defs>
       <use xlink:href="#DejaVuSans-30"/>
       <use xlink:href="#DejaVuSans-2e" x="63.623047"/>
       <use xlink:href="#DejaVuSans-34" x="95.410156"/>
      </g>
     </g>
    </g>
    <g id="xtick_4">
     <g id="line2d_4">
      <g>
       <use xlink:href="#m6778757eaf" x="157.63025" y="118.479375" style="stroke: #000000; stroke-width: 0.8"/>
      </g>
     </g>
     <g id="text_4">
      <!-- 0.6 -->
      <g transform="translate(151.269 131.558125) scale(0.08 -0.08)">
       <defs>
        <path id="DejaVuSans-36" d="M 2113 2584 
Q 1688 2584 1439 2293 
Q 1191 2003 1191 1497 
Q 1191 994 1439 701 
Q 1688 409 2113 409 
Q 2538 409 2786 701 
Q 3034 994 3034 1497 
Q 3034 2003 2786 2293 
Q 2538 2584 2113 2584 
z
M 3366 4563 
L 3366 3988 
Q 3128 4100 2886 4159 
Q 2644 4219 2406 4219 
Q 1781 4219 1451 3797 
Q 1122 3375 1075 2522 
Q 1259 2794 1537 2939 
Q 1816 3084 2150 3084 
Q 2853 3084 3261 2657 
Q 3669 2231 3669 1497 
Q 3669 778 3244 343 
Q 2819 -91 2113 -91 
Q 1303 -91 875 529 
Q 447 1150 447 2328 
Q 447 3434 972 4092 
Q 1497 4750 2381 4750 
Q 2619 4750 2861 4703 
Q 3103 4656 3366 4563 
z
" transform="scale(0.015625)"/>
       </defs>
       <use xlink:href="#DejaVuSans-30"/>
       <use xlink:href="#DejaVuSans-2e" x="63.623047"/>
       <use xlink:href="#DejaVuSans-36" x="95.410156"/>
      </g>
     </g>
    </g>
    <g id="xtick_5">
     <g id="line2d_5">
      <g>
       <use xlink:href="#m6778757eaf" x="194.45825" y="118.479375" style="stroke: #000000; stroke-width: 0.8"/>
      </g>
     </g>
     <g id="text_5">
      <!-- 0.8 -->
      <g transform="translate(188.097 131.558125) scale(0.08 -0.08)">
       <defs>
        <path id="DejaVuSans-38" d="M 2034 2216 
Q 1584 2216 1326 1975 
Q 1069 1734 1069 1313 
Q 1069 891 1326 650 
Q 1584 409 2034 409 
Q 2484 409 2743 651 
Q 3003 894 3003 1313 
Q 3003 1734 2745 1975 
Q 2488 2216 2034 2216 
z
M 1403 2484 
Q 997 2584 770 2862 
Q 544 3141 544 3541 
Q 544 4100 942 4425 
Q 1341 4750 2034 4750 
Q 2731 4750 3128 4425 
Q 3525 4100 3525 3541 
Q 3525 3141 3298 2862 
Q 3072 2584 2669 2484 
Q 3125 2378 3379 2068 
Q 3634 1759 3634 1313 
Q 3634 634 3220 271 
Q 2806 -91 2034 -91 
Q 1263 -91 848 271 
Q 434 634 434 1313 
Q 434 1759 690 2068 
Q 947 2378 1403 2484 
z
M 1172 3481 
Q 1172 3119 1398 2916 
Q 1625 2713 2034 2713 
Q 2441 2713 2670 2916 
Q 2900 3119 2900 3481 
Q 2900 3844 2670 4047 
Q 2441 4250 2034 4250 
Q 1625 4250 1398 4047 
Q 1172 3844 1172 3481 
z
" transform="scale(0.015625)"/>
       </defs>
       <use xlink:href="#DejaVuSans-30"/>
       <use xlink:href="#DejaVuSans-2e" x="63.623047"/>
       <use xlink:href="#DejaVuSans-38" x="95.410156"/>
      </g>
     </g>
    </g>
    <g id="xtick_6">
     <g id="line2d_6">
      <g>
       <use xlink:href="#m6778757eaf" x="231.28625" y="118.479375" style="stroke: #000000; stroke-width: 0.8"/>
      </g>
     </g>
     <g id="text_6">
      <!-- 1.0 -->
      <g transform="translate(224.925 131.558125) scale(0.08 -0.08)">
       <defs>
        <path id="DejaVuSans-31" d="M 794 531 
L 1825 531 
L 1825 4091 
L 703 3866 
L 703 4441 
L 1819 4666 
L 2450 4666 
L 2450 531 
L 3481 531 
L 3481 0 
L 794 0 
L 794 531 
z
" transform="scale(0.015625)"/>
       </defs>
       <use xlink:href="#DejaVuSans-31"/>
       <use xlink:href="#DejaVuSans-2e" x="63.623047"/>
       <use xlink:href="#DejaVuSans-30" x="95.410156"/>
      </g>
     </g>
    </g>
    <g id="text_7">
     <!-- $x_i(t)$ -->
     <g transform="translate(131.25625 143.300625) scale(0.08 -0.08)">
      <defs>
       <path id="DejaVuSans-Oblique-78" d="M 3841 3500 
L 2234 1784 
L 3219 0 
L 2559 0 
L 1819 1388 
L 531 0 
L -166 0 
L 1556 1844 
L 641 3500 
L 1300 3500 
L 1972 2234 
L 3144 3500 
L 3841 3500 
z
" transform="scale(0.015625)"/>
       <path id="DejaVuSans-Oblique-69" d="M 1172 4863 
L 1747 4863 
L 1606 4134 
L 1031 4134 
L 1172 4863 
z
M 909 3500 
L 1484 3500 
L 800 0 
L 225 0 
L 909 3500 
z
" transform="scale(0.015625)"/>
       <path id="DejaVuSans-28" d="M 1984 4856 
Q 1566 4138 1362 3434 
Q 1159 2731 1159 2009 
Q 1159 1288 1364 580 
Q 1569 -128 1984 -844 
L 1484 -844 
Q 1016 -109 783 600 
Q 550 1309 550 2009 
Q 550 2706 781 3412 
Q 1013 4119 1484 4856 
L 1984 4856 
z
" transform="scale(0.015625)"/>
       <path id="DejaVuSans-Oblique-74" d="M 2706 3500 
L 2619 3053 
L 1472 3053 
L 1100 1153 
Q 1081 1047 1072 975 
Q 1063 903 1063 863 
Q 1063 663 1183 572 
Q 1303 481 1569 481 
L 2150 481 
L 2053 0 
L 1503 0 
Q 991 0 739 200 
Q 488 400 488 806 
Q 488 878 497 964 
Q 506 1050 525 1153 
L 897 3053 
L 409 3053 
L 500 3500 
L 978 3500 
L 1172 4494 
L 1747 4494 
L 1556 3500 
L 2706 3500 
z
" transform="scale(0.015625)"/>
       <path id="DejaVuSans-29" d="M 513 4856 
L 1013 4856 
Q 1481 4119 1714 3412 
Q 1947 2706 1947 2009 
Q 1947 1309 1714 600 
Q 1481 -109 1013 -844 
L 513 -844 
Q 928 -128 1133 580 
Q 1338 1288 1338 2009 
Q 1338 2731 1133 3434 
Q 928 4138 513 4856 
z
" transform="scale(0.015625)"/>
      </defs>
      <use xlink:href="#DejaVuSans-Oblique-78" transform="translate(0 0.125)"/>
      <use xlink:href="#DejaVuSans-Oblique-69" transform="translate(59.179688 -16.28125) scale(0.7)"/>
      <use xlink:href="#DejaVuSans-28" transform="translate(81.362305 0.125)"/>
      <use xlink:href="#DejaVuSans-Oblique-74" transform="translate(120.375977 0.125)"/>
      <use xlink:href="#DejaVuSans-29" transform="translate(159.584961 0.125)"/>
     </g>
    </g>
   </g>
   <g id="matplotlib.axis_2">
    <g id="ytick_1">
     <g id="line2d_7">
      <defs>
       <path id="m34277adf98" d="M 0 0 
L -3.5 0 
" style="stroke: #000000; stroke-width: 0.8"/>
      </defs>
      <g>
       <use xlink:href="#m34277adf98" x="47.14625" y="115.839375" style="stroke: #000000; stroke-width: 0.8"/>
      </g>
     </g>
     <g id="text_8">
      <!-- −0.5 -->
      <g transform="translate(20.72 118.87875) scale(0.08 -0.08)">
       <defs>
        <path id="DejaVuSans-2212" d="M 678 2272 
L 4684 2272 
L 4684 1741 
L 678 1741 
L 678 2272 
z
" transform="scale(0.015625)"/>
        <path id="DejaVuSans-35" d="M 691 4666 
L 3169 4666 
L 3169 4134 
L 1269 4134 
L 1269 2991 
Q 1406 3038 1543 3061 
Q 1681 3084 1819 3084 
Q 2600 3084 3056 2656 
Q 3513 2228 3513 1497 
Q 3513 744 3044 326 
Q 2575 -91 1722 -91 
Q 1428 -91 1123 -41 
Q 819 9 494 109 
L 494 744 
Q 775 591 1075 516 
Q 1375 441 1709 441 
Q 2250 441 2565 725 
Q 2881 1009 2881 1497 
Q 2881 1984 2565 2268 
Q 2250 2553 1709 2553 
Q 1456 2553 1204 2497 
Q 953 2441 691 2322 
L 691 4666 
z
" transform="scale(0.015625)"/>
       </defs>
       <use xlink:href="#DejaVuSans-2212"/>
       <use xlink:href="#DejaVuSans-30" x="83.789062"/>
       <use xlink:href="#DejaVuSans-2e" x="147.412109"/>
       <use xlink:href="#DejaVuSans-35" x="179.199219"/>
      </g>
     </g>
    </g>
    <g id="ytick_2">
     <g id="line2d_8">
      <g>
       <use xlink:href="#m34277adf98" x="47.14625" y="89.439375" style="stroke: #000000; stroke-width: 0.8"/>
      </g>
     </g>
     <g id="text_9">
      <!-- 0.0 -->
      <g transform="translate(27.42375 92.47875) scale(0.08 -0.08)">
       <use xlink:href="#DejaVuSans-30"/>
       <use xlink:href="#DejaVuSans-2e" x="63.623047"/>
       <use xlink:href="#DejaVuSans-30" x="95.410156"/>
      </g>
     </g>
    </g>
    <g id="ytick_3">
     <g id="line2d_9">
      <g>
       <use xlink:href="#m34277adf98" x="47.14625" y="63.039375" style="stroke: #000000; stroke-width: 0.8"/>
      </g>
     </g>
     <g id="text_10">
      <!-- 0.5 -->
      <g transform="translate(27.42375 66.07875) scale(0.08 -0.08)">
       <use xlink:href="#DejaVuSans-30"/>
       <use xlink:href="#DejaVuSans-2e" x="63.623047"/>
       <use xlink:href="#DejaVuSans-35" x="95.410156"/>
      </g>
     </g>
    </g>
    <g id="ytick_4">
     <g id="line2d_10">
      <g>
       <use xlink:href="#m34277adf98" x="47.14625" y="36.639375" style="stroke: #000000; stroke-width: 0.8"/>
      </g>
     </g>
     <g id="text_11">
      <!-- 1.0 -->
      <g transform="translate(27.42375 39.67875) scale(0.08 -0.08)">
       <use xlink:href="#DejaVuSans-31"/>
       <use xlink:href="#DejaVuSans-2e" x="63.623047"/>
       <use xlink:href="#DejaVuSans-30" x="95.410156"/>
      </g>
     </g>
    </g>
    <g id="ytick_5">
     <g id="line2d_11">
      <g>
       <use xlink:href="#m34277adf98" x="47.14625" y="10.239375" style="stroke: #000000; stroke-width: 0.8"/>
      </g>
     </g>
     <g id="text_12">
      <!-- 1.5 -->
      <g transform="translate(27.42375 13.27875) scale(0.08 -0.08)">
       <use xlink:href="#DejaVuSans-31"/>
       <use xlink:href="#DejaVuSans-2e" x="63.623047"/>
       <use xlink:href="#DejaVuSans-35" x="95.410156"/>
      </g>
     </g>
    </g>
    <g id="text_13">
     <!-- $F^{Func}_{ki}(t)$ -->
     <g transform="translate(14.48 77.119375) rotate(-90) scale(0.08 -0.08)">
      <defs>
       <path id="DejaVuSans-Oblique-46" d="M 1081 4666 
L 3756 4666 
L 3653 4134 
L 1606 4134 
L 1338 2759 
L 3188 2759 
L 3084 2228 
L 1234 2228 
L 800 0 
L 172 0 
L 1081 4666 
z
" transform="scale(0.015625)"/>
       <path id="DejaVuSans-Oblique-75" d="M 428 1388 
L 838 3500 
L 1416 3500 
L 1006 1409 
Q 975 1256 961 1147 
Q 947 1038 947 966 
Q 947 700 1109 554 
Q 1272 409 1569 409 
Q 2031 409 2368 721 
Q 2706 1034 2809 1563 
L 3194 3500 
L 3769 3500 
L 3091 0 
L 2516 0 
L 2631 550 
Q 2388 244 2052 76 
Q 1716 -91 1338 -91 
Q 878 -91 622 161 
Q 366 413 366 863 
Q 366 956 381 1097 
Q 397 1238 428 1388 
z
" transform="scale(0.015625)"/>
       <path id="DejaVuSans-Oblique-6e" d="M 3566 2113 
L 3156 0 
L 2578 0 
L 2988 2091 
Q 3016 2238 3031 2350 
Q 3047 2463 3047 2528 
Q 3047 2791 2881 2937 
Q 2716 3084 2419 3084 
Q 1956 3084 1622 2776 
Q 1288 2469 1184 1941 
L 800 0 
L 225 0 
L 903 3500 
L 1478 3500 
L 1363 2950 
Q 1603 3253 1940 3418 
Q 2278 3584 2650 3584 
Q 3113 3584 3367 3334 
Q 3622 3084 3622 2631 
Q 3622 2519 3608 2391 
Q 3594 2263 3566 2113 
z
" transform="scale(0.015625)"/>
       <path id="DejaVuSans-Oblique-63" d="M 3431 3366 
L 3316 2797 
Q 3109 2947 2876 3022 
Q 2644 3097 2394 3097 
Q 2119 3097 1870 3000 
Q 1622 2903 1453 2725 
Q 1184 2453 1037 2087 
Q 891 1722 891 1331 
Q 891 859 1127 628 
Q 1363 397 1844 397 
Q 2081 397 2348 469 
Q 2616 541 2906 684 
L 2797 116 
Q 2547 13 2283 -39 
Q 2019 -91 1741 -91 
Q 1044 -91 669 257 
Q 294 606 294 1253 
Q 294 1797 489 2255 
Q 684 2713 1069 3078 
Q 1331 3328 1684 3456 
Q 2038 3584 2456 3584 
Q 2700 3584 2940 3529 
Q 3181 3475 3431 3366 
z
" transform="scale(0.015625)"/>
       <path id="DejaVuSans-Oblique-6b" d="M 1172 4863 
L 1747 4863 
L 1197 2028 
L 3169 3500 
L 3916 3500 
L 1716 1825 
L 3322 0 
L 2625 0 
L 1131 1709 
L 800 0 
L 225 0 
L 1172 4863 
z
" transform="scale(0.015625)"/>
      </defs>
      <use xlink:href="#DejaVuSans-Oblique-46" transform="translate(0 0.625)"/>
      <use xlink:href="#DejaVuSans-Oblique-46" transform="translate(64.536302 39.965625) scale(0.7)"/>
      <use xlink:href="#DejaVuSans-Oblique-75" transform="translate(104.799974 39.965625) scale(0.7)"/>
      <use xlink:href="#DejaVuSans-Oblique-6e" transform="translate(149.165208 39.965625) scale(0.7)"/>
      <use xlink:href="#DejaVuSans-Oblique-63" transform="translate(193.530443 39.965625) scale(0.7)"/>
      <use xlink:href="#DejaVuSans-Oblique-6b" transform="translate(57.519531 -26.71875) scale(0.7)"/>
      <use xlink:href="#DejaVuSans-Oblique-69" transform="translate(98.056641 -26.71875) scale(0.7)"/>
      <use xlink:href="#DejaVuSans-28" transform="translate(234.751146 0.625)"/>
      <use xlink:href="#DejaVuSans-Oblique-74" transform="translate(273.764818 0.625)"/>
      <use xlink:href="#DejaVuSans-29" transform="translate(312.973802 0.625)"/>
     </g>
    </g>
   </g>
   <g id="line2d_12">
    <path d="M 47.14625 105.279375 
L 48.98765 104.328975 
L 50.82905 103.378575 
L 52.67045 102.428175 
L 54.51185 101.477775 
L 56.35325 100.527375 
L 58.19465 99.576975 
L 60.03605 98.626575 
L 61.87745 97.676175 
L 63.71885 96.725775 
L 65.56025 95.775375 
L 67.40165 94.824975 
L 69.24305 93.874575 
L 71.08445 92.924175 
L 72.92585 91.973775 
L 74.76725 91.023375 
L 76.60865 90.072975 
L 78.45005 89.122575 
L 80.29145 88.172175 
L 82.13285 87.221775 
L 83.97425 86.271375 
L 85.81565 85.320975 
L 87.65705 84.370575 
L 89.49845 83.420175 
L 91.33985 82.469775 
L 93.18125 81.519375 
L 95.02265 80.568975 
L 96.86405 79.618575 
L 98.70545 78.668175 
L 100.54685 77.717775 
L 102.38825 76.767375 
L 104.22965 75.816975 
L 106.07105 74.866575 
L 107.91245 73.916175 
L 109.75385 72.965775 
L 111.59525 72.015375 
L 113.43665 71.064975 
L 115.27805 70.114575 
L 117.11945 69.164175 
L 118.96085 68.213775 
L 120.80225 67.263375 
L 122.64365 66.312975 
L 124.48505 65.362575 
L 126.32645 64.412175 
L 128.16785 63.461775 
L 130.00925 62.511375 
L 131.85065 61.560975 
L 133.69205 60.610575 
L 135.53345 59.660175 
L 137.37485 58.709775 
L 139.21625 57.759375 
L 141.05765 56.808975 
L 142.89905 55.858575 
L 144.74045 54.908175 
L 146.58185 53.957775 
L 148.42325 53.007375 
L 150.26465 52.056975 
L 152.10605 51.106575 
L 153.94745 50.156175 
L 155.78885 49.205775 
L 157.63025 48.255375 
L 159.47165 47.304975 
L 161.31305 46.354575 
L 163.15445 45.404175 
L 164.99585 44.453775 
L 166.83725 43.503375 
L 168.67865 42.552975 
L 170.52005 41.602575 
L 172.36145 40.652175 
L 174.20285 39.701775 
L 176.04425 38.751375 
L 177.88565 37.800975 
L 179.72705 36.850575 
L 181.56845 35.900175 
L 183.40985 34.949775 
L 185.25125 33.999375 
L 187.09265 33.048975 
L 188.93405 32.098575 
L 190.77545 31.148175 
L 192.61685 30.197775 
L 194.45825 29.247375 
L 196.29965 28.296975 
L 198.14105 27.346575 
L 199.98245 26.396175 
L 201.82385 25.445775 
L 203.66525 24.495375 
L 205.50665 23.544975 
L 207.34805 22.594575 
L 209.18945 21.644175 
L 211.03085 20.693775 
L 212.87225 19.743375 
L 214.71365 18.792975 
L 216.55505 17.842575 
L 218.39645 16.892175 
L 220.23785 15.941775 
L 222.07925 14.991375 
L 223.92065 14.040975 
L 225.76205 13.090575 
L 227.60345 12.140175 
L 229.44485 11.189775 
L 231.28625 10.239375 
L 233.12765 9.288975 
L 234.96905 8.338575 
L 236.81045 7.388175 
L 238.65185 6.437775 
L 240.49325 5.487375 
L 242.33465 4.536975 
L 244.17605 3.586575 
L 245.8475 2.723891 
" clip-path="url(#pfe408d884b)" style="fill: none; stroke: #000000; stroke-width: 1.5; stroke-linecap: square"/>
   </g>
   <g id="LineCollection_1">
    <path d="M 37.93925 89.439375 
L 240.49325 89.439375 
" clip-path="url(#pfe408d884b)" style="fill: none; stroke: #000000; stroke-width: 0.5"/>
   </g>
   <g id="patch_3">
    <path d="M 47.14625 118.479375 
L 47.14625 7.599375 
" style="fill: none; stroke: #000000; stroke-width: 0.8; stroke-linejoin: miter; stroke-linecap: square"/>
   </g>
   <g id="patch_4">
    <path d="M 231.28625 118.479375 
L 231.28625 7.599375 
" style="fill: none; stroke: #000000; stroke-width: 0.8; stroke-linejoin: miter; stroke-linecap: square"/>
   </g>
   <g id="patch_5">
    <path d="M 47.14625 118.479375 
L 231.28625 118.479375 
" style="fill: none; stroke: #000000; stroke-width: 0.8; stroke-linejoin: miter; stroke-linecap: square"/>
   </g>
   <g id="patch_6">
    <path d="M 47.14625 7.599375 
L 231.28625 7.599375 
" style="fill: none; stroke: #000000; stroke-width: 0.8; stroke-linejoin: miter; stroke-linecap: square"/>
   </g>
   <g id="text_14">
    <!-- LTD -->
    <g transform="translate(52.67045 95.775375) scale(0.08 -0.08)">
     <defs>
      <path id="DejaVuSans-4c" d="M 628 4666 
L 1259 4666 
L 1259 531 
L 3531 531 
L 3531 0 
L 628 0 
L 628 4666 
z
" transform="scale(0.015625)"/>
      <path id="DejaVuSans-54" d="M -19 4666 
L 3928 4666 
L 3928 4134 
L 2272 4134 
L 2272 0 
L 1638 0 
L 1638 4134 
L -19 4134 
L -19 4666 
z
" transform="scale(0.015625)"/>
      <path id="DejaVuSans-44" d="M 1259 4147 
L 1259 519 
L 2022 519 
Q 2988 519 3436 956 
Q 3884 1394 3884 2338 
Q 3884 3275 3436 3711 
Q 2988 4147 2022 4147 
L 1259 4147 
z
M 628 4666 
L 1925 4666 
Q 3281 4666 3915 4102 
Q 4550 3538 4550 2338 
Q 4550 1131 3912 565 
Q 3275 0 1925 0 
L 628 0 
L 628 4666 
z
" transform="scale(0.015625)"/>
     </defs>
     <use xlink:href="#DejaVuSans-4c"/>
     <use xlink:href="#DejaVuSans-54" x="41.962891"/>
     <use xlink:href="#DejaVuSans-44" x="103.046875"/>
    </g>
   </g>
   <g id="text_15">
    <!-- LTP -->
    <g transform="translate(166.83725 69.639375) scale(0.08 -0.08)">
     <defs>
      <path id="DejaVuSans-50" d="M 1259 4147 
L 1259 2394 
L 2053 2394 
Q 2494 2394 2734 2622 
Q 2975 2850 2975 3272 
Q 2975 3691 2734 3919 
Q 2494 4147 2053 4147 
L 1259 4147 
z
M 628 4666 
L 2053 4666 
Q 2838 4666 3239 4311 
Q 3641 3956 3641 3272 
Q 3641 2581 3239 2228 
Q 2838 1875 2053 1875 
L 1259 1875 
L 1259 0 
L 628 0 
L 628 4666 
z
" transform="scale(0.015625)"/>
     </defs>
     <use xlink:href="#DejaVuSans-4c"/>
     <use xlink:href="#DejaVuSans-54" x="41.962891"/>
     <use xlink:href="#DejaVuSans-50" x="103.046875"/>
    </g>
   </g>
  </g>
 </g>
 <defs>
  <clipPath id="pfe408d884b">
   <rect x="47.14625" y="7.599375" width="184.14" height="110.88"/>
  </clipPath>
 </defs>
</svg>
