<?xml version="1.0" encoding="utf-8" standalone="no"?>
<!DOCTYPE svg PUBLIC "-//W3C//DTD SVG 1.1//EN"
  "http://www.w3.org/Graphics/SVG/1.1/DTD/svg11.dtd">
<svg xmlns:xlink="http://www.w3.org/1999/xlink" width="237.295pt" height="154.804375pt" viewBox="0 0 237.295 154.804375" xmlns="http://www.w3.org/2000/svg" version="1.1">
 <metadata>
  <rdf:RDF xmlns:dc="http://purl.org/dc/elements/1.1/" xmlns:cc="http://creativecommons.org/ns#" xmlns:rdf="http://www.w3.org/1999/02/22-rdf-syntax-ns#">
   <cc:Work>
    <dc:type rdf:resource="http://purl.org/dc/dcmitype/StillImage"/>
    <dc:date>2024-11-28T13:40:59.598682</dc:date>
    <dc:format>image/svg+xml</dc:format>
    <dc:creator>
     <cc:Agent>
      <dc:title>Matplotlib v3.7.0, https://matplotlib.org/</dc:title>
     </cc:Agent>
    </dc:creator>
   </cc:Work>
  </rdf:RDF>
 </metadata>
 <defs>
  <style type="text/css">*{stroke-linejoin: round; stroke-linecap: butt}</style>
 </defs>
 <g id="figure_1">
  <g id="patch_1">
   <path d="M 0 154.804375 
L 237.295 154.804375 
L 237.295 0 
L 0 0 
z
" style="fill: #ffffff"/>
  </g>
  <g id="axes_1">
   <g id="patch_2">
    <path d="M 39.59375 121.119375 
L 223.73375 121.119375 
L 223.73375 10.239375 
L 39.59375 10.239375 
z
" style="fill: #ffffff"/>
   </g>
   <g id="PolyCollection_1">
    <defs>
     <path id="m55da555820" d="M 41.43515 -144.565 
L 41.43515 -143.4898 
L 43.27655 -142.4146 
L 45.11795 -141.3394 
L 46.95935 -140.2642 
L 48.80075 -139.189 
L 50.64215 -138.1138 
L 52.48355 -137.0386 
L 54.32495 -135.9634 
L 56.16635 -134.8882 
L 58.00775 -133.813 
L 59.84915 -132.7378 
L 61.69055 -131.6626 
L 63.53195 -130.5874 
L 65.37335 -129.5122 
L 67.21475 -128.437 
L 69.05615 -127.3618 
L 70.89755 -126.2866 
L 72.73895 -125.2114 
L 74.58035 -124.1362 
L 76.42175 -123.061 
L 78.26315 -121.9858 
L 80.10455 -120.9106 
L 81.94595 -119.8354 
L 83.78735 -118.7602 
L 85.62875 -117.685 
L 87.47015 -116.6098 
L 89.31155 -115.5346 
L 91.15295 -114.4594 
L 92.99435 -113.3842 
L 94.83575 -112.309 
L 96.67715 -111.2338 
L 98.51855 -110.1586 
L 100.35995 -109.0834 
L 102.20135 -108.0082 
L 104.04275 -106.933 
L 105.88415 -105.8578 
L 107.72555 -104.7826 
L 109.56695 -103.7074 
L 111.40835 -102.6322 
L 113.24975 -101.557 
L 115.09115 -100.4818 
L 116.93255 -99.4066 
L 118.77395 -98.3314 
L 120.61535 -97.2562 
L 122.45675 -96.181 
L 124.29815 -95.1058 
L 126.13955 -94.0306 
L 127.98095 -92.9554 
L 129.82235 -91.8802 
L 131.66375 -90.805 
L 133.50515 -89.7298 
L 135.34655 -88.6546 
L 137.18795 -87.5794 
L 139.02935 -86.5042 
L 140.87075 -85.429 
L 142.71215 -84.3538 
L 144.55355 -83.2786 
L 146.39495 -82.2034 
L 148.23635 -81.1282 
L 150.07775 -80.053 
L 151.91915 -78.9778 
L 153.76055 -77.9026 
L 155.60195 -76.8274 
L 157.44335 -75.7522 
L 159.28475 -74.677 
L 161.12615 -73.6018 
L 162.96755 -72.5266 
L 164.80895 -71.4514 
L 166.65035 -70.3762 
L 168.49175 -69.301 
L 170.33315 -68.2258 
L 172.17455 -67.1506 
L 174.01595 -66.0754 
L 175.85735 -65.0002 
L 177.69875 -63.925 
L 179.54015 -62.8498 
L 181.38155 -61.7746 
L 183.22295 -60.6994 
L 185.06435 -59.6242 
L 186.90575 -58.549 
L 188.74715 -57.4738 
L 190.58855 -56.3986 
L 192.42995 -55.3234 
L 194.27135 -54.2482 
L 196.11275 -53.173 
L 197.95415 -52.0978 
L 199.79555 -51.0226 
L 201.63695 -49.9474 
L 203.47835 -48.8722 
L 205.31975 -47.797 
L 207.16115 -46.7218 
L 209.00255 -45.6466 
L 210.84395 -44.5714 
L 212.68535 -43.4962 
L 214.52675 -42.421 
L 216.36815 -41.3458 
L 218.20955 -40.2706 
L 220.05095 -39.1954 
L 221.89235 -38.1202 
L 223.73375 -37.045 
L 225.57515 -35.9698 
L 227.41655 -34.8946 
L 229.25795 -33.8194 
L 231.09935 -32.7442 
L 232.94075 -31.669 
L 234.78215 -30.5938 
L 236.62355 -29.5186 
L 238.46495 -28.4434 
L 240.30635 -27.3682 
L 240.30635 -144.565 
L 240.30635 -144.565 
L 238.46495 -144.565 
L 236.62355 -144.565 
L 234.78215 -144.565 
L 232.94075 -144.565 
L 231.09935 -144.565 
L 229.25795 -144.565 
L 227.41655 -144.565 
L 225.57515 -144.565 
L 223.73375 -144.565 
L 221.89235 -144.565 
L 220.05095 -144.565 
L 218.20955 -144.565 
L 216.36815 -144.565 
L 214.52675 -144.565 
L 212.68535 -144.565 
L 210.84395 -144.565 
L 209.00255 -144.565 
L 207.16115 -144.565 
L 205.31975 -144.565 
L 203.47835 -144.565 
L 201.63695 -144.565 
L 199.79555 -144.565 
L 197.95415 -144.565 
L 196.11275 -144.565 
L 194.27135 -144.565 
L 192.42995 -144.565 
L 190.58855 -144.565 
L 188.74715 -144.565 
L 186.90575 -144.565 
L 185.06435 -144.565 
L 183.22295 -144.565 
L 181.38155 -144.565 
L 179.54015 -144.565 
L 177.69875 -144.565 
L 175.85735 -144.565 
L 174.01595 -144.565 
L 172.17455 -144.565 
L 170.33315 -144.565 
L 168.49175 -144.565 
L 166.65035 -144.565 
L 164.80895 -144.565 
L 162.96755 -144.565 
L 161.12615 -144.565 
L 159.28475 -144.565 
L 157.44335 -144.565 
L 155.60195 -144.565 
L 153.76055 -144.565 
L 151.91915 -144.565 
L 150.07775 -144.565 
L 148.23635 -144.565 
L 146.39495 -144.565 
L 144.55355 -144.565 
L 142.71215 -144.565 
L 140.87075 -144.565 
L 139.02935 -144.565 
L 137.18795 -144.565 
L 135.34655 -144.565 
L 133.50515 -144.565 
L 131.66375 -144.565 
L 129.82235 -144.565 
L 127.98095 -144.565 
L 126.13955 -144.565 
L 124.29815 -144.565 
L 122.45675 -144.565 
L 120.61535 -144.565 
L 118.77395 -144.565 
L 116.93255 -144.565 
L 115.09115 -144.565 
L 113.24975 -144.565 
L 111.40835 -144.565 
L 109.56695 -144.565 
L 107.72555 -144.565 
L 105.88415 -144.565 
L 104.04275 -144.565 
L 102.20135 -144.565 
L 100.35995 -144.565 
L 98.51855 -144.565 
L 96.67715 -144.565 
L 94.83575 -144.565 
L 92.99435 -144.565 
L 91.15295 -144.565 
L 89.31155 -144.565 
L 87.47015 -144.565 
L 85.62875 -144.565 
L 83.78735 -144.565 
L 81.94595 -144.565 
L 80.10455 -144.565 
L 78.26315 -144.565 
L 76.42175 -144.565 
L 74.58035 -144.565 
L 72.73895 -144.565 
L 70.89755 -144.565 
L 69.05615 -144.565 
L 67.21475 -144.565 
L 65.37335 -144.565 
L 63.53195 -144.565 
L 61.69055 -144.565 
L 59.84915 -144.565 
L 58.00775 -144.565 
L 56.16635 -144.565 
L 54.32495 -144.565 
L 52.48355 -144.565 
L 50.64215 -144.565 
L 48.80075 -144.565 
L 46.95935 -144.565 
L 45.11795 -144.565 
L 43.27655 -144.565 
L 41.43515 -144.565 
z
" style="stroke: #b3cde3"/>
    </defs>
    <g clip-path="url(#p8057fa80da)">
     <use xlink:href="#m55da555820" x="0" y="154.804375" style="fill: #b3cde3; stroke: #b3cde3"/>
    </g>
   </g>
   <g id="matplotlib.axis_1">
    <g id="xtick_1">
     <g id="line2d_1">
      <defs>
       <path id="m9e0893b7ba" d="M 0 0 
L 0 3.5 
" style="stroke: #000000; stroke-width: 0.8"/>
      </defs>
      <g>
       <use xlink:href="#m9e0893b7ba" x="39.59375" y="121.119375" style="stroke: #000000; stroke-width: 0.8"/>
      </g>
     </g>
     <g id="text_1">
      <!-- 0.0 -->
      <g transform="translate(33.2325 134.198125) scale(0.08 -0.08)">
       <defs>
        <path id="DejaVuSans-30" d="M 2034 4250 
Q 1547 4250 1301 3770 
Q 1056 3291 1056 2328 
Q 1056 1369 1301 889 
Q 1547 409 2034 409 
Q 2525 409 2770 889 
Q 3016 1369 3016 2328 
Q 3016 3291 2770 3770 
Q 2525 4250 2034 4250 
z
M 2034 4750 
Q 2819 4750 3233 4129 
Q 3647 3509 3647 2328 
Q 3647 1150 3233 529 
Q 2819 -91 2034 -91 
Q 1250 -91 836 529 
Q 422 1150 422 2328 
Q 422 3509 836 4129 
Q 1250 4750 2034 4750 
z
" transform="scale(0.015625)"/>
        <path id="DejaVuSans-2e" d="M 684 794 
L 1344 794 
L 1344 0 
L 684 0 
L 684 794 
z
" transform="scale(0.015625)"/>
       </defs>
       <use xlink:href="#DejaVuSans-30"/>
       <use xlink:href="#DejaVuSans-2e" x="63.623047"/>
       <use xlink:href="#DejaVuSans-30" x="95.410156"/>
      </g>
     </g>
    </g>
    <g id="xtick_2">
     <g id="line2d_2">
      <g>
       <use xlink:href="#m9e0893b7ba" x="76.42175" y="121.119375" style="stroke: #000000; stroke-width: 0.8"/>
      </g>
     </g>
     <g id="text_2">
      <!-- 0.2 -->
      <g transform="translate(70.0605 134.198125) scale(0.08 -0.08)">
       <defs>
        <path id="DejaVuSans-32" d="M 1228 531 
L 3431 531 
L 3431 0 
L 469 0 
L 469 531 
Q 828 903 1448 1529 
Q 2069 2156 2228 2338 
Q 2531 2678 2651 2914 
Q 2772 3150 2772 3378 
Q 2772 3750 2511 3984 
Q 2250 4219 1831 4219 
Q 1534 4219 1204 4116 
Q 875 4013 500 3803 
L 500 4441 
Q 881 4594 1212 4672 
Q 1544 4750 1819 4750 
Q 2544 4750 2975 4387 
Q 3406 4025 3406 3419 
Q 3406 3131 3298 2873 
Q 3191 2616 2906 2266 
Q 2828 2175 2409 1742 
Q 1991 1309 1228 531 
z
" transform="scale(0.015625)"/>
       </defs>
       <use xlink:href="#DejaVuSans-30"/>
       <use xlink:href="#DejaVuSans-2e" x="63.623047"/>
       <use xlink:href="#DejaVuSans-32" x="95.410156"/>
      </g>
     </g>
    </g>
    <g id="xtick_3">
     <g id="line2d_3">
      <g>
       <use xlink:href="#m9e0893b7ba" x="113.24975" y="121.119375" style="stroke: #000000; stroke-width: 0.8"/>
      </g>
     </g>
     <g id="text_3">
      <!-- 0.4 -->
      <g transform="translate(106.8885 134.198125) scale(0.08 -0.08)">
       <defs>
        <path id="DejaVuSans-34" d="M 2419 4116 
L 825 1625 
L 2419 1625 
L 2419 4116 
z
M 2253 4666 
L 3047 4666 
L 3047 1625 
L 3713 1625 
L 3713 1100 
L 3047 1100 
L 3047 0 
L 2419 0 
L 2419 1100 
L 313 1100 
L 313 1709 
L 2253 4666 
z
" transform="scale(0.015625)"/>
       </defs>
       <use xlink:href="#DejaVuSans-30"/>
       <use xlink:href="#DejaVuSans-2e" x="63.623047"/>
       <use xlink:href="#DejaVuSans-34" x="95.410156"/>
      </g>
     </g>
    </g>
    <g id="xtick_4">
     <g id="line2d_4">
      <g>
       <use xlink:href="#m9e0893b7ba" x="150.07775" y="121.119375" style="stroke: #000000; stroke-width: 0.8"/>
      </g>
     </g>
     <g id="text_4">
      <!-- 0.6 -->
      <g transform="translate(143.7165 134.198125) scale(0.08 -0.08)">
       <defs>
        <path id="DejaVuSans-36" d="M 2113 2584 
Q 1688 2584 1439 2293 
Q 1191 2003 1191 1497 
Q 1191 994 1439 701 
Q 1688 409 2113 409 
Q 2538 409 2786 701 
Q 3034 994 3034 1497 
Q 3034 2003 2786 2293 
Q 2538 2584 2113 2584 
z
M 3366 4563 
L 3366 3988 
Q 3128 4100 2886 4159 
Q 2644 4219 2406 4219 
Q 1781 4219 1451 3797 
Q 1122 3375 1075 2522 
Q 1259 2794 1537 2939 
Q 1816 3084 2150 3084 
Q 2853 3084 3261 2657 
Q 3669 2231 3669 1497 
Q 3669 778 3244 343 
Q 2819 -91 2113 -91 
Q 1303 -91 875 529 
Q 447 1150 447 2328 
Q 447 3434 972 4092 
Q 1497 4750 2381 4750 
Q 2619 4750 2861 4703 
Q 3103 4656 3366 4563 
z
" transform="scale(0.015625)"/>
       </defs>
       <use xlink:href="#DejaVuSans-30"/>
       <use xlink:href="#DejaVuSans-2e" x="63.623047"/>
       <use xlink:href="#DejaVuSans-36" x="95.410156"/>
      </g>
     </g>
    </g>
    <g id="xtick_5">
     <g id="line2d_5">
      <g>
       <use xlink:href="#m9e0893b7ba" x="186.90575" y="121.119375" style="stroke: #000000; stroke-width: 0.8"/>
      </g>
     </g>
     <g id="text_5">
      <!-- 0.8 -->
      <g transform="translate(180.5445 134.198125) scale(0.08 -0.08)">
       <defs>
        <path id="DejaVuSans-38" d="M 2034 2216 
Q 1584 2216 1326 1975 
Q 1069 1734 1069 1313 
Q 1069 891 1326 650 
Q 1584 409 2034 409 
Q 2484 409 2743 651 
Q 3003 894 3003 1313 
Q 3003 1734 2745 1975 
Q 2488 2216 2034 2216 
z
M 1403 2484 
Q 997 2584 770 2862 
Q 544 3141 544 3541 
Q 544 4100 942 4425 
Q 1341 4750 2034 4750 
Q 2731 4750 3128 4425 
Q 3525 4100 3525 3541 
Q 3525 3141 3298 2862 
Q 3072 2584 2669 2484 
Q 3125 2378 3379 2068 
Q 3634 1759 3634 1313 
Q 3634 634 3220 271 
Q 2806 -91 2034 -91 
Q 1263 -91 848 271 
Q 434 634 434 1313 
Q 434 1759 690 2068 
Q 947 2378 1403 2484 
z
M 1172 3481 
Q 1172 3119 1398 2916 
Q 1625 2713 2034 2713 
Q 2441 2713 2670 2916 
Q 2900 3119 2900 3481 
Q 2900 3844 2670 4047 
Q 2441 4250 2034 4250 
Q 1625 4250 1398 4047 
Q 1172 3844 1172 3481 
z
" transform="scale(0.015625)"/>
       </defs>
       <use xlink:href="#DejaVuSans-30"/>
       <use xlink:href="#DejaVuSans-2e" x="63.623047"/>
       <use xlink:href="#DejaVuSans-38" x="95.410156"/>
      </g>
     </g>
    </g>
    <g id="xtick_6">
     <g id="line2d_6">
      <g>
       <use xlink:href="#m9e0893b7ba" x="223.73375" y="121.119375" style="stroke: #000000; stroke-width: 0.8"/>
      </g>
     </g>
     <g id="text_6">
      <!-- 1.0 -->
      <g transform="translate(217.3725 134.198125) scale(0.08 -0.08)">
       <defs>
        <path id="DejaVuSans-31" d="M 794 531 
L 1825 531 
L 1825 4091 
L 703 3866 
L 703 4441 
L 1819 4666 
L 2450 4666 
L 2450 531 
L 3481 531 
L 3481 0 
L 794 0 
L 794 531 
z
" transform="scale(0.015625)"/>
       </defs>
       <use xlink:href="#DejaVuSans-31"/>
       <use xlink:href="#DejaVuSans-2e" x="63.623047"/>
       <use xlink:href="#DejaVuSans-30" x="95.410156"/>
      </g>
     </g>
    </g>
    <g id="text_7">
     <!-- $x_i(t)$ -->
     <g transform="translate(123.70375 145.940625) scale(0.08 -0.08)">
      <defs>
       <path id="DejaVuSans-Oblique-78" d="M 3841 3500 
L 2234 1784 
L 3219 0 
L 2559 0 
L 1819 1388 
L 531 0 
L -166 0 
L 1556 1844 
L 641 3500 
L 1300 3500 
L 1972 2234 
L 3144 3500 
L 3841 3500 
z
" transform="scale(0.015625)"/>
       <path id="DejaVuSans-Oblique-69" d="M 1172 4863 
L 1747 4863 
L 1606 4134 
L 1031 4134 
L 1172 4863 
z
M 909 3500 
L 1484 3500 
L 800 0 
L 225 0 
L 909 3500 
z
" transform="scale(0.015625)"/>
       <path id="DejaVuSans-28" d="M 1984 4856 
Q 1566 4138 1362 3434 
Q 1159 2731 1159 2009 
Q 1159 1288 1364 580 
Q 1569 -128 1984 -844 
L 1484 -844 
Q 1016 -109 783 600 
Q 550 1309 550 2009 
Q 550 2706 781 3412 
Q 1013 4119 1484 4856 
L 1984 4856 
z
" transform="scale(0.015625)"/>
       <path id="DejaVuSans-Oblique-74" d="M 2706 3500 
L 2619 3053 
L 1472 3053 
L 1100 1153 
Q 1081 1047 1072 975 
Q 1063 903 1063 863 
Q 1063 663 1183 572 
Q 1303 481 1569 481 
L 2150 481 
L 2053 0 
L 1503 0 
Q 991 0 739 200 
Q 488 400 488 806 
Q 488 878 497 964 
Q 506 1050 525 1153 
L 897 3053 
L 409 3053 
L 500 3500 
L 978 3500 
L 1172 4494 
L 1747 4494 
L 1556 3500 
L 2706 3500 
z
" transform="scale(0.015625)"/>
       <path id="DejaVuSans-29" d="M 513 4856 
L 1013 4856 
Q 1481 4119 1714 3412 
Q 1947 2706 1947 2009 
Q 1947 1309 1714 600 
Q 1481 -109 1013 -844 
L 513 -844 
Q 928 -128 1133 580 
Q 1338 1288 1338 2009 
Q 1338 2731 1133 3434 
Q 928 4138 513 4856 
z
" transform="scale(0.015625)"/>
      </defs>
      <use xlink:href="#DejaVuSans-Oblique-78" transform="translate(0 0.125)"/>
      <use xlink:href="#DejaVuSans-Oblique-69" transform="translate(59.179688 -16.28125) scale(0.7)"/>
      <use xlink:href="#DejaVuSans-28" transform="translate(81.362305 0.125)"/>
      <use xlink:href="#DejaVuSans-Oblique-74" transform="translate(120.375977 0.125)"/>
      <use xlink:href="#DejaVuSans-29" transform="translate(159.584961 0.125)"/>
     </g>
    </g>
   </g>
   <g id="matplotlib.axis_2">
    <g id="ytick_1">
     <g id="line2d_7">
      <defs>
       <path id="m4366c778ce" d="M 0 0 
L -3.5 0 
" style="stroke: #000000; stroke-width: 0.8"/>
      </defs>
      <g>
       <use xlink:href="#m4366c778ce" x="39.59375" y="111.039375" style="stroke: #000000; stroke-width: 0.8"/>
      </g>
     </g>
     <g id="text_8">
      <!-- −3 -->
      <g transform="translate(20.8 114.07875) scale(0.08 -0.08)">
       <defs>
        <path id="DejaVuSans-2212" d="M 678 2272 
L 4684 2272 
L 4684 1741 
L 678 1741 
L 678 2272 
z
" transform="scale(0.015625)"/>
        <path id="DejaVuSans-33" d="M 2597 2516 
Q 3050 2419 3304 2112 
Q 3559 1806 3559 1356 
Q 3559 666 3084 287 
Q 2609 -91 1734 -91 
Q 1441 -91 1130 -33 
Q 819 25 488 141 
L 488 750 
Q 750 597 1062 519 
Q 1375 441 1716 441 
Q 2309 441 2620 675 
Q 2931 909 2931 1356 
Q 2931 1769 2642 2001 
Q 2353 2234 1838 2234 
L 1294 2234 
L 1294 2753 
L 1863 2753 
Q 2328 2753 2575 2939 
Q 2822 3125 2822 3475 
Q 2822 3834 2567 4026 
Q 2313 4219 1838 4219 
Q 1578 4219 1281 4162 
Q 984 4106 628 3988 
L 628 4550 
Q 988 4650 1302 4700 
Q 1616 4750 1894 4750 
Q 2613 4750 3031 4423 
Q 3450 4097 3450 3541 
Q 3450 3153 3228 2886 
Q 3006 2619 2597 2516 
z
" transform="scale(0.015625)"/>
       </defs>
       <use xlink:href="#DejaVuSans-2212"/>
       <use xlink:href="#DejaVuSans-33" x="83.789062"/>
      </g>
     </g>
    </g>
    <g id="ytick_2">
     <g id="line2d_8">
      <g>
       <use xlink:href="#m4366c778ce" x="39.59375" y="77.439375" style="stroke: #000000; stroke-width: 0.8"/>
      </g>
     </g>
     <g id="text_9">
      <!-- −2 -->
      <g transform="translate(20.8 80.47875) scale(0.08 -0.08)">
       <use xlink:href="#DejaVuSans-2212"/>
       <use xlink:href="#DejaVuSans-32" x="83.789062"/>
      </g>
     </g>
    </g>
    <g id="ytick_3">
     <g id="line2d_9">
      <g>
       <use xlink:href="#m4366c778ce" x="39.59375" y="43.839375" style="stroke: #000000; stroke-width: 0.8"/>
      </g>
     </g>
     <g id="text_10">
      <!-- −1 -->
      <g transform="translate(20.8 46.87875) scale(0.08 -0.08)">
       <use xlink:href="#DejaVuSans-2212"/>
       <use xlink:href="#DejaVuSans-31" x="83.789062"/>
      </g>
     </g>
    </g>
    <g id="ytick_4">
     <g id="line2d_10">
      <g>
       <use xlink:href="#m4366c778ce" x="39.59375" y="10.239375" style="stroke: #000000; stroke-width: 0.8"/>
      </g>
     </g>
     <g id="text_11">
      <!-- 0 -->
      <g transform="translate(27.50375 13.27875) scale(0.08 -0.08)">
       <use xlink:href="#DejaVuSans-30"/>
      </g>
     </g>
    </g>
    <g id="text_12">
     <!-- $F^{STDP}_{ki}(t)$ -->
     <g transform="translate(14.56 80.399375) rotate(-90) scale(0.08 -0.08)">
      <defs>
       <path id="DejaVuSans-Oblique-46" d="M 1081 4666 
L 3756 4666 
L 3653 4134 
L 1606 4134 
L 1338 2759 
L 3188 2759 
L 3084 2228 
L 1234 2228 
L 800 0 
L 172 0 
L 1081 4666 
z
" transform="scale(0.015625)"/>
       <path id="DejaVuSans-Oblique-53" d="M 3859 4513 
L 3738 3897 
Q 3422 4066 3111 4152 
Q 2800 4238 2509 4238 
Q 1944 4238 1609 3991 
Q 1275 3744 1275 3334 
Q 1275 3109 1398 2989 
Q 1522 2869 2034 2731 
L 2413 2638 
Q 3053 2472 3303 2217 
Q 3553 1963 3553 1503 
Q 3553 797 2998 353 
Q 2444 -91 1538 -91 
Q 1166 -91 791 -17 
Q 416 56 38 206 
L 166 856 
Q 513 641 861 531 
Q 1209 422 1556 422 
Q 2147 422 2503 684 
Q 2859 947 2859 1369 
Q 2859 1650 2717 1795 
Q 2575 1941 2106 2059 
L 1728 2156 
Q 1081 2325 845 2545 
Q 609 2766 609 3163 
Q 609 3859 1145 4304 
Q 1681 4750 2541 4750 
Q 2875 4750 3203 4690 
Q 3531 4631 3859 4513 
z
" transform="scale(0.015625)"/>
       <path id="DejaVuSans-Oblique-54" d="M 378 4666 
L 4325 4666 
L 4225 4134 
L 2559 4134 
L 1759 0 
L 1125 0 
L 1925 4134 
L 275 4134 
L 378 4666 
z
" transform="scale(0.015625)"/>
       <path id="DejaVuSans-Oblique-44" d="M 1081 4666 
L 2438 4666 
Q 3519 4666 4070 4208 
Q 4622 3750 4622 2847 
Q 4622 2250 4412 1698 
Q 4203 1147 3834 769 
Q 3463 381 2891 190 
Q 2319 0 1538 0 
L 172 0 
L 1081 4666 
z
M 1613 4147 
L 909 519 
L 1734 519 
Q 2794 519 3375 1128 
Q 3956 1738 3956 2847 
Q 3956 3519 3581 3833 
Q 3206 4147 2406 4147 
L 1613 4147 
z
" transform="scale(0.015625)"/>
       <path id="DejaVuSans-Oblique-50" d="M 1081 4666 
L 2541 4666 
Q 3178 4666 3512 4369 
Q 3847 4072 3847 3500 
Q 3847 2731 3353 2303 
Q 2859 1875 1966 1875 
L 1172 1875 
L 806 0 
L 172 0 
L 1081 4666 
z
M 1613 4147 
L 1275 2394 
L 2069 2394 
Q 2606 2394 2893 2669 
Q 3181 2944 3181 3456 
Q 3181 3784 2986 3965 
Q 2791 4147 2438 4147 
L 1613 4147 
z
" transform="scale(0.015625)"/>
       <path id="DejaVuSans-Oblique-6b" d="M 1172 4863 
L 1747 4863 
L 1197 2028 
L 3169 3500 
L 3916 3500 
L 1716 1825 
L 3322 0 
L 2625 0 
L 1131 1709 
L 800 0 
L 225 0 
L 1172 4863 
z
" transform="scale(0.015625)"/>
      </defs>
      <use xlink:href="#DejaVuSans-Oblique-46" transform="translate(0 0.70625)"/>
      <use xlink:href="#DejaVuSans-Oblique-53" transform="translate(64.536302 40.046875) scale(0.7)"/>
      <use xlink:href="#DejaVuSans-Oblique-54" transform="translate(108.969896 40.046875) scale(0.7)"/>
      <use xlink:href="#DejaVuSans-Oblique-44" transform="translate(151.728685 40.046875) scale(0.7)"/>
      <use xlink:href="#DejaVuSans-Oblique-50" transform="translate(205.630052 40.046875) scale(0.7)"/>
      <use xlink:href="#DejaVuSans-Oblique-6b" transform="translate(57.519531 -26.6375) scale(0.7)"/>
      <use xlink:href="#DejaVuSans-Oblique-69" transform="translate(98.056641 -26.6375) scale(0.7)"/>
      <use xlink:href="#DejaVuSans-28" transform="translate(250.576341 0.70625)"/>
      <use xlink:href="#DejaVuSans-Oblique-74" transform="translate(289.590013 0.70625)"/>
      <use xlink:href="#DejaVuSans-29" transform="translate(328.798997 0.70625)"/>
     </g>
    </g>
   </g>
   <g id="line2d_11">
    <path d="M 39.59375 10.239375 
L 41.43515 11.314575 
L 43.27655 12.389775 
L 45.11795 13.464975 
L 46.95935 14.540175 
L 48.80075 15.615375 
L 50.64215 16.690575 
L 52.48355 17.765775 
L 54.32495 18.840975 
L 56.16635 19.916175 
L 58.00775 20.991375 
L 59.84915 22.066575 
L 61.69055 23.141775 
L 63.53195 24.216975 
L 65.37335 25.292175 
L 67.21475 26.367375 
L 69.05615 27.442575 
L 70.89755 28.517775 
L 72.73895 29.592975 
L 74.58035 30.668175 
L 76.42175 31.743375 
L 78.26315 32.818575 
L 80.10455 33.893775 
L 81.94595 34.968975 
L 83.78735 36.044175 
L 85.62875 37.119375 
L 87.47015 38.194575 
L 89.31155 39.269775 
L 91.15295 40.344975 
L 92.99435 41.420175 
L 94.83575 42.495375 
L 96.67715 43.570575 
L 98.51855 44.645775 
L 100.35995 45.720975 
L 102.20135 46.796175 
L 104.04275 47.871375 
L 105.88415 48.946575 
L 107.72555 50.021775 
L 109.56695 51.096975 
L 111.40835 52.172175 
L 113.24975 53.247375 
L 115.09115 54.322575 
L 116.93255 55.397775 
L 118.77395 56.472975 
L 120.61535 57.548175 
L 122.45675 58.623375 
L 124.29815 59.698575 
L 126.13955 60.773775 
L 127.98095 61.848975 
L 129.82235 62.924175 
L 131.66375 63.999375 
L 133.50515 65.074575 
L 135.34655 66.149775 
L 137.18795 67.224975 
L 139.02935 68.300175 
L 140.87075 69.375375 
L 142.71215 70.450575 
L 144.55355 71.525775 
L 146.39495 72.600975 
L 148.23635 73.676175 
L 150.07775 74.751375 
L 151.91915 75.826575 
L 153.76055 76.901775 
L 155.60195 77.976975 
L 157.44335 79.052175 
L 159.28475 80.127375 
L 161.12615 81.202575 
L 162.96755 82.277775 
L 164.80895 83.352975 
L 166.65035 84.428175 
L 168.49175 85.503375 
L 170.33315 86.578575 
L 172.17455 87.653775 
L 174.01595 88.728975 
L 175.85735 89.804175 
L 177.69875 90.879375 
L 179.54015 91.954575 
L 181.38155 93.029775 
L 183.22295 94.104975 
L 185.06435 95.180175 
L 186.90575 96.255375 
L 188.74715 97.330575 
L 190.58855 98.405775 
L 192.42995 99.480975 
L 194.27135 100.556175 
L 196.11275 101.631375 
L 197.95415 102.706575 
L 199.79555 103.781775 
L 201.63695 104.856975 
L 203.47835 105.932175 
L 205.31975 107.007375 
L 207.16115 108.082575 
L 209.00255 109.157775 
L 210.84395 110.232975 
L 212.68535 111.308175 
L 214.52675 112.383375 
L 216.36815 113.458575 
L 218.20955 114.533775 
L 220.05095 115.608975 
L 221.89235 116.684175 
L 223.73375 117.759375 
L 225.57515 118.834575 
L 227.41655 119.909775 
L 229.25795 120.984975 
L 231.09935 122.060175 
L 232.94075 123.135375 
L 234.78215 124.210575 
L 236.62355 125.285775 
L 238.295 126.261741 
" clip-path="url(#p8057fa80da)" style="fill: none; stroke: #000000; stroke-width: 1.5; stroke-linecap: square"/>
   </g>
   <g id="LineCollection_1">
    <path d="M 30.38675 10.239375 
L 232.94075 10.239375 
" clip-path="url(#p8057fa80da)" style="fill: none; stroke: #000000; stroke-width: 0.5"/>
   </g>
   <g id="patch_3">
    <path d="M 39.59375 121.119375 
L 39.59375 10.239375 
" style="fill: none; stroke: #000000; stroke-width: 0.8; stroke-linejoin: miter; stroke-linecap: square"/>
   </g>
   <g id="patch_4">
    <path d="M 223.73375 121.119375 
L 223.73375 10.239375 
" style="fill: none; stroke: #000000; stroke-width: 0.8; stroke-linejoin: miter; stroke-linecap: square"/>
   </g>
   <g id="patch_5">
    <path d="M 39.59375 121.119375 
L 223.73375 121.119375 
" style="fill: none; stroke: #000000; stroke-width: 0.8; stroke-linejoin: miter; stroke-linecap: square"/>
   </g>
   <g id="patch_6">
    <path d="M 39.59375 10.239375 
L 223.73375 10.239375 
" style="fill: none; stroke: #000000; stroke-width: 0.8; stroke-linejoin: miter; stroke-linecap: square"/>
   </g>
   <g id="text_13">
    <!-- LTD -->
    <g transform="translate(150.07775 43.839375) scale(0.08 -0.08)">
     <defs>
      <path id="DejaVuSans-4c" d="M 628 4666 
L 1259 4666 
L 1259 531 
L 3531 531 
L 3531 0 
L 628 0 
L 628 4666 
z
" transform="scale(0.015625)"/>
      <path id="DejaVuSans-54" d="M -19 4666 
L 3928 4666 
L 3928 4134 
L 2272 4134 
L 2272 0 
L 1638 0 
L 1638 4134 
L -19 4134 
L -19 4666 
z
" transform="scale(0.015625)"/>
      <path id="DejaVuSans-44" d="M 1259 4147 
L 1259 519 
L 2022 519 
Q 2988 519 3436 956 
Q 3884 1394 3884 2338 
Q 3884 3275 3436 3711 
Q 2988 4147 2022 4147 
L 1259 4147 
z
M 628 4666 
L 1925 4666 
Q 3281 4666 3915 4102 
Q 4550 3538 4550 2338 
Q 4550 1131 3912 565 
Q 3275 0 1925 0 
L 628 0 
L 628 4666 
z
" transform="scale(0.015625)"/>
     </defs>
     <use xlink:href="#DejaVuSans-4c"/>
     <use xlink:href="#DejaVuSans-54" x="41.962891"/>
     <use xlink:href="#DejaVuSans-44" x="103.046875"/>
    </g>
   </g>
  </g>
 </g>
 <defs>
  <clipPath id="p8057fa80da">
   <rect x="39.59375" y="10.239375" width="184.14" height="110.88"/>
  </clipPath>
 </defs>
</svg>
